<svg t="1584270847788" class="icon" viewBox="0 0 1024 1024" version="1.1" xmlns="http://www.w3.org/2000/svg" p-id="10547" xmlns:xlink="http://www.w3.org/1999/xlink" width="200" height="200"><defs><style type="text/css"></style></defs><path d="M186.9 945.2c-1.4 0-2.8-0.7-3.5-2.1l-19.5-35c-1.1-1.9-0.4-4.4 1.5-5.4s4.4-0.4 5.4 1.5l19.5 35c1.1 1.9 0.4 4.4-1.5 5.4-0.6 0.5-1.3 0.6-1.9 0.6z" fill="#6CE3FF" p-id="10548"></path><path d="M159.6 937.5c-1.4 0-2.8-0.7-3.5-2.1-1.1-1.9-0.4-4.4 1.5-5.4l35-19.5c1.9-1.1 4.4-0.4 5.4 1.5 1.1 1.9 0.4 4.4-1.5 5.4l-35 19.5c-0.6 0.4-1.2 0.6-1.9 0.6z" fill="#6CE3FF" p-id="10549"></path><path d="M137.4 460c-1.8 0-3.4-1.2-3.9-3l-6.3-23.4c-0.6-2.1 0.7-4.3 2.8-4.9s4.3 0.7 4.9 2.8l6.3 23.4c0.6 2.1-0.7 4.3-2.8 4.9-0.3 0.1-0.7 0.2-1 0.2z" fill="#ACD598" p-id="10550"></path><path d="M122.6 451.4c-1.8 0-3.4-1.2-3.9-3-0.6-2.1 0.7-4.3 2.8-4.9l23.4-6.3c2.1-0.6 4.3 0.7 4.9 2.8s-0.7 4.3-2.8 4.9l-23.4 6.3c-0.3 0.2-0.7 0.2-1 0.2z" fill="#ACD598" p-id="10551"></path><path d="M919.1 397.6c-0.8 0-1.6-0.2-2.3-0.8L892.1 379c-1.8-1.3-2.2-3.8-0.9-5.6 1.3-1.8 3.8-2.2 5.6-0.9l24.7 17.8c1.8 1.3 2.2 3.8 0.9 5.6-0.8 1.1-2 1.7-3.3 1.7z" fill="#FFF100" p-id="10552"></path><path d="M897.9 401.1c-0.8 0-1.6-0.2-2.3-0.8-1.8-1.3-2.2-3.8-0.9-5.6l17.7-24.7c1.3-1.8 3.8-2.2 5.6-0.9 1.8 1.3 2.2 3.8 0.9 5.6l-17.7 24.7c-0.8 1.1-2.1 1.7-3.3 1.7z" fill="#FFF100" p-id="10553"></path><path d="M896.1 534c4.7-4.7 12.2-4.7 16.8 0 4.7 4.7 4.7 12.2 0 16.8-4.7 4.7-12.2 4.7-16.8 0-4.7-4.7-4.7-12.2 0-16.8z" fill="#F1F1F1" p-id="10554"></path><path d="M904.5 557.4c-3.9 0-7.7-1.4-10.6-4.4l-0.4-0.4c-5.5-5.9-5.4-15.1 0.4-20.9 5.9-5.9 15.5-5.9 21.3 0 5.9 5.9 5.9 15.5 0 21.3-3 2.9-6.8 4.4-10.7 4.4z m-6.1-8.8c3.4 3.3 8.9 3.3 12.3-0.1s3.4-9 0-12.4c-3.4-3.4-9-3.4-12.4 0l-2.2-2.2 2.2 2.2c-3.4 3.5-3.4 9 0.1 12.5z" fill="#D5B6F2" p-id="10555"></path><path d="M133.1 773.1c-9.3 0-16.8-7.6-16.8-16.8s7.6-16.8 16.8-16.8 16.8 7.6 16.8 16.8-7.5 16.8-16.8 16.8z m0-26.9c-5.6 0-10.1 4.5-10.1 10.1s4.5 10.1 10.1 10.1 10.1-4.5 10.1-10.1-4.5-10.1-10.1-10.1z" fill="#F78D9D" p-id="10556"></path><path d="M660.6 94.5c-4.9 0-9.7-1.8-13.4-5.6-7.4-7.4-7.4-19.4 0-26.9l0.1-0.1c7.4-7.4 19.5-7.4 26.9 0 3.6 3.6 5.6 8.4 5.6 13.4s-2 9.9-5.6 13.4c-3.9 3.9-8.7 5.8-13.6 5.8z m-9.5-28.4c-5.2 5.2-5.1 13.7 0.1 18.9 5.2 5.2 13.7 5.2 18.9 0 2.5-2.5 3.9-5.9 3.9-9.4s-1.4-7-3.9-9.4c-5.2-5.4-13.7-5.4-19-0.1z m-2-2.1z" fill="#7DF9F6" p-id="10557"></path><path d="M974.4 298.8c-3.3 0-6-2.7-6-6s2.7-6 6-6 6 2.7 6 6-2.7 6-6 6z m0-8.6c-1.4 0-2.6 1.2-2.6 2.6s1.2 2.6 2.6 2.6 2.6-1.2 2.6-2.6-1.2-2.6-2.6-2.6z" fill="#99BEFF" p-id="10558"></path><path d="M613.2 748.6c-8.8 0-16-7.2-16-16s7.2-16 16-16 16 7.2 16 16-7.2 16-16 16z m0-26.7c-5.9 0-10.7 4.8-10.7 10.7s4.8 10.7 10.7 10.7 10.7-4.8 10.7-10.7-4.8-10.7-10.7-10.7z" fill="#55B2F2" p-id="10559"></path><path d="M277.5 424.7c-9.9 0-18-8.1-18-18s8.1-18 18-18 18 8.1 18 18-8.1 18-18 18z m0-30.4c-6.9 0-12.5 5.6-12.5 12.5s5.6 12.5 12.5 12.5 12.5-5.6 12.5-12.5-5.6-12.5-12.5-12.5z" fill="#FFC183" p-id="10560"></path><path d="M977.2 660.4m-8.5 0a8.5 8.5 0 1 0 17 0 8.5 8.5 0 1 0-17 0Z" fill="#D3D462" p-id="10561"></path><path d="M353.8 135.9m-5 0a5 5 0 1 0 10 0 5 5 0 1 0-10 0Z" fill="#A657FF" p-id="10562"></path><path d="M83.8 305.3m-8.5 0a8.5 8.5 0 1 0 17 0 8.5 8.5 0 1 0-17 0Z" fill="#FF455C" p-id="10563"></path><path d="M565.5 161.3m-12 0a12 12 0 1 0 24 0 12 12 0 1 0-24 0Z" fill="#F2ED62" p-id="10564"></path><path d="M275.9 839.4m-8 0a8 8 0 1 0 16 0 8 8 0 1 0-16 0Z" fill="#6AD125" p-id="10565"></path><path d="M607.6 929.5c-2.8 0-5.6-1-7.7-3.2-4.3-4.3-4.3-11.2-0.1-15.4l0.1-0.1c4.3-4.3 11.3-4.3 15.5 0 4.3 4.3 4.3 11.3 0 15.5-2.1 2.1-5 3.2-7.8 3.2z m-4.4-15.5c-2.5 2.5-2.5 6.6-0.1 9 2.5 2.5 6.5 2.5 9 0s2.5-6.5 0-9c-2.4-2.4-6.4-2.5-8.9 0z m-1.7-1.6z" fill="#FF8A8A" p-id="10566"></path><path d="M123.6 139.6c-2.9 0-5.7-1-7.8-3.3-4.3-4.3-4.3-11.3-0.1-15.6l0.1-0.1c4.3-4.3 11.4-4.3 15.7 0 4.3 4.3 4.3 11.4 0 15.7-2.2 2.2-5 3.3-7.9 3.3z m-4.5-15.7c-2.5 2.5-2.5 6.6 0 9.1s6.6 2.5 9.1 0 2.5-6.6 0-9.1-6.6-2.5-9.1 0z m-1.7-1.6z" fill="#F9B7AA" p-id="10567"></path><path d="M708 834.5m-8 0a8 8 0 1 0 16 0 8 8 0 1 0-16 0Z" fill="#FFF5CC" p-id="10568"></path><path d="M423.6 53.5m-8 0a8 8 0 1 0 16 0 8 8 0 1 0-16 0Z" fill="#D3A884" p-id="10569"></path><path d="M912.2 903.4c-4.8 0-9.4-1.9-12.8-5.3-7.1-7.1-7.1-18.6 0-25.7 3.4-3.4 8-5.3 12.8-5.3 4.8 0 9.4 1.9 12.8 5.3 3.4 3.4 5.3 8 5.3 12.8s-1.9 9.4-5.3 12.9c-3.4 3.4-7.9 5.3-12.8 5.3z m0-28.3c-2.7 0-5.3 1.1-7.2 3-4 4-4 10.4 0 14.4 1.9 1.9 4.5 3 7.2 3s5.3-1.1 7.2-3 3-4.5 3-7.2-1.1-5.3-3-7.2c-1.9-2-4.5-3-7.2-3z m-10 0.2z" fill="#E6F4AB" p-id="10570"></path><path d="M795.1 841.1L645.6 544.3l159.5-159.8 52.5 393.9-62.5 62.7zM202.5 251.3l62.6-62.7L658.9 242 499.4 401.8 202.5 251.3z" fill="#22B4FF" p-id="10571"></path><path d="M871.6 293.7l-398 397.9 25.5 184.9-78.5 77-114-232 3.6-3.3-204.6-109 64.9-65 191.8 22.3 391.2-391.1c67-67.1 162.9-44.1 162.9-44.1s21.1 96.3-44.8 162.4z" fill="#FFDF00" p-id="10572"></path><path d="M423.9 960.5c-0.5 0-1 0-1.6-0.1-3.2-0.5-5.9-2.5-7.4-5.3L297.8 725.2 69 608.2c-2.8-1.5-4.8-4.2-5.3-7.3s0.5-6.4 2.8-8.6l77.7-77.9c2.1-2.1 5.1-3.2 8.1-2.9L350 531.9l122.4-123.1-306.8-155.4c-2.9-1.4-4.8-4.2-5.4-7.3-0.5-3.2 0.5-6.4 2.8-8.6l67.4-67.5c2.2-2.2 5.3-3.3 8.4-2.8l417.9 56.6 72.6-72.9c31.6-31.7 74-50.5 122.5-54.5 36.5-3 63.5 3.4 64.6 3.7 3.7 0.9 6.6 3.8 7.4 7.6 0.2 1.1 6 28.2 2.7 64.7-4.4 48.6-23.2 90.7-54.3 121.9l-63.9 64.2L864 775.2c0.4 3.1-0.6 6.2-2.8 8.4l-67.4 67.5c-2.3 2.3-5.5 3.3-8.7 2.8s-5.9-2.5-7.3-5.4l-153.7-305-131.5 132.3 19 195.9c0.3 3-0.8 5.9-2.9 8L431 957.6c-1.9 1.9-4.5 2.9-7.1 2.9z m-108.1-244l110.8 217.2 64.6-64.8-19-195.9c-0.3-3 0.8-5.9 2.9-8l144.7-145.4c2.3-2.3 5.5-3.3 8.7-2.8s5.9 2.5 7.4 5.4l153.7 305 54.1-54.2-55.6-416.9c-0.4-3.1 0.6-6.2 2.8-8.4l67.4-67.7c28-28.1 44.3-64.7 48.5-109 2.2-23.6 0.2-43.2-1.2-52.8-9.6-1.6-29.1-3.9-52.6-1.9-44.1 3.7-80.9 20.1-109.3 48.6l-76.1 76.5c-2.2 2.2-5.3 3.3-8.4 2.9l-417.9-56.6-54.1 54.2 306.9 155.4c2.9 1.4 4.8 4.2 5.4 7.3 0.5 3.2-0.5 6.4-2.8 8.6L360.8 549.4c-2.1 2.1-5.1 3.2-8.1 2.9L155 531.9l-64.6 64.8 220.1 112.6c2.8 1.4 4.8 4.1 5.3 7.2z" fill="#222222" p-id="10573"></path><path d="M313.5 724.8c-2.6 0-5.1-1-7.1-2.9-3.9-3.9-3.9-10.2 0-14.1L562.7 451c3.9-3.9 10.2-3.9 14.1 0s3.9 10.2 0 14.1L320.6 721.9c-2 1.9-4.5 2.9-7.1 2.9zM437.4 468.3c-2.6 0-5.1-1-7.1-2.9-3.9-3.9-3.9-10.2 0-14.1l256.3-256.8c3.9-3.9 10.2-3.9 14.1 0s3.9 10.2 0 14.1L444.5 465.4c-2 1.9-4.5 2.9-7.1 2.9zM579.4 583.6c-2.6 0-4.1-1-6.1-2.9-3.9-3.9-3.9-10.2 0-14.1l255.3-256.8c3.9-3.9 10.2-3.9 14.1 0s3.9 10.2 0 14.1L587.5 580.7c-2 1.9-5.5 2.9-8.1 2.9z" fill="#222222" p-id="10574"></path><path d="M818.1 206m-26.5 0a26.5 26.5 0 1 0 53 0 26.5 26.5 0 1 0-53 0Z" fill="#FFFFFF" p-id="10575"></path><path d="M828.1 210m-26.5 0a26.5 26.5 0 1 0 53 0 26.5 26.5 0 1 0-53 0Z" fill="#EB6877" p-id="10576"></path><path d="M817.6 249.5c-24.3 0-44-19.7-44-44s19.7-44 44-44 44 19.7 44 44-19.7 44-44 44z m0-68c-13.2 0-24 10.8-24 24s10.8 24 24 24 24-10.8 24-24-10.8-24-24-24z" fill="#222222" p-id="10577"></path></svg>
