<svg t="1584360846172" class="icon" viewBox="0 0 1024 1024" version="1.1" xmlns="http://www.w3.org/2000/svg" p-id="9097" xmlns:xlink="http://www.w3.org/1999/xlink" width="250" height="250"><defs><style type="text/css"></style></defs><path d="M440.3 944.5c-0.5 0-1 0-1.6-0.1-3.2-0.5-5.9-2.5-7.4-5.3L314.2 709.2l-228.8-117c-2.8-1.5-4.8-4.2-5.3-7.3s0.5-6.4 2.8-8.6l77.7-77.9c2.1-2.1 5.1-3.2 8.1-2.9l197.7 20.4 122.4-123.1L182 237.4c-2.9-1.4-4.8-4.2-5.4-7.3-0.5-3.2 0.5-6.4 2.8-8.6l67.4-67.5c2.2-2.2 5.3-3.3 8.4-2.8l417.9 56.6 72.6-72.9c31.6-31.7 74-50.5 122.5-54.5 36.5-3 63.5 3.4 64.6 3.7 3.7 0.9 6.6 3.8 7.4 7.6 0.2 1.1 6 28.2 2.7 64.7-4.4 48.6-23.2 90.7-54.3 121.9l-63.9 64.2 55.6 416.9c0.4 3.1-0.6 6.2-2.8 8.4L810.2 835c-2.3 2.3-5.5 3.3-8.7 2.8-3.2-0.5-5.9-2.5-7.3-5.4l-153.7-305L509 659.8l19 195.9c0.3 3-0.8 5.9-2.9 8l-77.7 77.9c-1.9 1.9-4.5 2.9-7.1 2.9z m-108.1-244L443 917.7l64.6-64.8-19-195.9c-0.3-3 0.8-5.9 2.9-8l144.7-145.4c2.3-2.3 5.5-3.3 8.7-2.8 3.2 0.5 5.9 2.5 7.4 5.4l153.7 305 54.1-54.2-55.6-416.9c-0.4-3.1 0.6-6.2 2.8-8.4l67.4-67.7c28-28.1 44.3-64.7 48.5-109 2.2-23.6 0.2-43.2-1.2-52.8-9.6-1.6-29.1-3.9-52.6-1.9-44.1 3.7-80.9 20.1-109.3 48.6L684 225.4c-2.2 2.2-5.3 3.3-8.4 2.9l-417.9-56.6-54.1 54.2 306.9 155.4c2.9 1.4 4.8 4.2 5.4 7.3 0.5 3.2-0.5 6.4-2.8 8.6L377.2 533.4c-2.1 2.1-5.1 3.2-8.1 2.9l-197.8-20.4-64.6 64.8 220.1 112.6c2.9 1.4 4.9 4.1 5.4 7.2z" p-id="9098" fill="#e6e6e6"></path><path d="M325.9 706.8c-2.6 0-5.1-1-7.1-2.9-3.9-3.9-3.9-10.2 0-14.1L575.1 433c3.9-3.9 10.2-3.9 14.1 0 3.9 3.9 3.9 10.2 0 14.1L333 703.9c-2 1.9-4.5 2.9-7.1 2.9zM834 233.5c-24.3 0-44-19.7-44-44s19.7-44 44-44 44 19.7 44 44-19.7 44-44 44z m0-68c-13.2 0-24 10.8-24 24s10.8 24 24 24 24-10.8 24-24-10.8-24-24-24z" p-id="9099" fill="#e6e6e6"></path></svg>
