<svg t="1584360681707" class="icon" viewBox="0 0 1024 1024" version="1.1" xmlns="http://www.w3.org/2000/svg" p-id="7260" xmlns:xlink="http://www.w3.org/1999/xlink" width="250" height="250"><defs><style type="text/css"></style></defs><path d="M292.571429 438.857143h73.142857v292.571428h-73.142857zM472.502857 321.828571h73.142857v409.6h-73.142857z" fill="#e6e6e6" p-id="7261"></path><path d="M950.857143 0H73.142857C32.182857 0 0 32.182857 0 73.142857v877.714286c0 40.96 32.182857 73.142857 73.142857 73.142857h877.714286c40.96 0 73.142857-32.182857 73.142857-73.142857V73.142857c0-40.96-32.182857-73.142857-73.142857-73.142857z m-119.954286 804.571429c0 16.091429-13.165714 29.257143-29.257143 29.257142h-585.142857c-16.091429 0-29.257143-13.165714-29.257143-29.257142V219.428571c0-16.091429 13.165714-29.257143 29.257143-29.257142H643.657143c8.777143 0 14.628571 5.851429 14.628571 14.628571s-5.851429 14.628571-14.628571 14.628571H216.502857v585.142858h585.142857V219.428571h-58.514285c-8.777143 0-14.628571-5.851429-14.628572-14.628571s5.851429-14.628571 14.628572-14.628571h58.514285c16.091429 0 29.257143 13.165714 29.257143 29.257142v585.142858zM731.428571 512c16.091429 0 29.257143 13.165714 29.257143 29.257143v190.171428c0 16.091429-13.165714 29.257143-29.257143 29.257143h-73.142857c-16.091429 0-29.257143-13.165714-29.257143-29.257143V541.257143c0-16.091429 13.165714-29.257143 29.257143-29.257143h73.142857zM574.902857 321.828571v409.6c0 16.091429-13.165714 29.257143-29.257143 29.257143h-73.142857c-16.091429 0-29.257143-13.165714-29.257143-29.257143V321.828571c0-16.091429 13.165714-29.257143 29.257143-29.257142h73.142857c16.091429 0 29.257143 13.165714 29.257143 29.257142zM394.971429 438.857143v292.571428c0 16.091429-13.165714 29.257143-29.257143 29.257143h-73.142857c-16.091429 0-29.257143-13.165714-29.257143-29.257143V438.857143c0-16.091429 13.165714-29.257143 29.257143-29.257143h73.142857c16.091429 0 29.257143 13.165714 29.257143 29.257143z" fill="#e6e6e6" p-id="7262"></path><path d="M658.285714 541.257143h73.142857v190.171428h-73.142857z" fill="#e6e6e6" p-id="7263"></path></svg>
