<?xml version="1.0" standalone="no"?><!DOCTYPE svg PUBLIC "-//W3C//DTD SVG 1.1//EN" "http://www.w3.org/Graphics/SVG/1.1/DTD/svg11.dtd"><svg t="1584271614767" class="icon" viewBox="0 0 1024 1024" version="1.1" xmlns="http://www.w3.org/2000/svg" p-id="17097" xmlns:xlink="http://www.w3.org/1999/xlink" width="200" height="200"><defs><style type="text/css"></style></defs><path d="M91.136 122.88h805.376v79.36h-29.696v413.184h29.696v79.36h-363.008v156.16h161.792v79.36H292.352v-79.36h161.792v-156.16H91.136v-79.36h27.648V202.24h-27.648V122.88z m608.256 195.584l-34.304-1.536-34.304-1.536 9.728 18.944-134.656 75.776-54.784-38.4-6.144-4.096-6.656 2.56-118.784 45.056 9.728 25.6 111.616-42.496L496.64 437.248l7.168 5.12 7.68-4.096 140.8-79.36 9.216 17.92 18.944-29.184 18.944-29.184z m-70.144 88.576v127.488h38.912V407.04h-38.912zM568.32 442.368v92.16h38.912v-92.16H568.32z m-61.44 45.056v47.104h38.912v-47.104H506.88z m-60.928-30.208v76.8h38.912v-76.8h-38.912zM384 449.536v84.992h38.912V449.536H384z m-60.928 23.04v61.952h38.912V472.576h-38.912z m460.8-266.24H201.728v404.48h582.144v-404.48z" fill="#231815" p-id="17098"></path></svg>