<?xml version="1.0" standalone="no"?><!DOCTYPE svg PUBLIC "-//W3C//DTD SVG 1.1//EN" "http://www.w3.org/Graphics/SVG/1.1/DTD/svg11.dtd"><svg t="1584271604637" class="icon" viewBox="0 0 1122 1024" version="1.1" xmlns="http://www.w3.org/2000/svg" p-id="16954" xmlns:xlink="http://www.w3.org/1999/xlink" width="219.140625" height="200"><defs><style type="text/css"></style></defs><path d="M554.372414 863.337931c-181.848276 0-328.386207-148.303448-328.386207-328.386207s148.303448-328.386207 328.386207-328.386207h5.296552c10.593103 0 17.655172 8.827586 17.655172 17.655173l-5.296552 293.075862H865.103448c10.593103 0 17.655172 7.062069 17.655173 17.655172 1.765517 180.082759-146.537931 328.386207-328.386207 328.386207z m-12.358621-621.462069c-155.365517 7.062069-280.717241 135.944828-280.717241 293.075862 0 162.427586 132.413793 293.075862 293.075862 293.075862 155.365517 0 284.248276-121.82069 293.075862-275.420689H554.372414c-5.296552 0-8.827586-1.765517-12.358621-5.296552-3.531034-3.531034-5.296552-8.827586-5.296552-12.358621l5.296552-293.075862z" fill="#3164AF" p-id="16955"></path><path d="M902.17931 443.144828H663.834483c-5.296552 0-8.827586-1.765517-12.358621-5.296552-3.531034-3.531034-5.296552-8.827586-5.296552-12.358621l3.531035-238.344827c0-10.593103 7.062069-17.655172 17.655172-17.655173 139.475862 1.765517 252.468966 116.524138 252.468966 256 0 10.593103-7.062069 17.655172-17.655173 17.655173z m-220.689655-35.310345h203.034483c-8.827586-105.931034-93.572414-192.441379-199.503448-203.034483l-3.531035 203.034483z" fill="#3164AF" p-id="16956"></path></svg>