<svg t="1584360705206" class="icon" viewBox="0 0 1024 1024" version="1.1" xmlns="http://www.w3.org/2000/svg" p-id="8329" xmlns:xlink="http://www.w3.org/1999/xlink" width="250" height="250"><defs><style type="text/css"></style></defs><path d="M512 127.168l-62.912 1.6c-216.128 15.84-387.2 195.84-387.2 416.032 0 230.624 186.656 417.568 417.312 417.568 220.224 0 400-171.456 415.936-387.584L896.512 512 512 512 512 127.168zM833.024 576c-15.648 192-168.096 324.672-354.112 324.672-196.448 0-355.744-159.36-355.744-355.808C123.168 358.848 256 206.304 448 190.624L448 576 833.024 576zM544 65.344 544 480l414.368 0C958.368 256 768 65.344 544 65.344zM608 131.872c32 4.576 49.44 12.192 74.4 22.752 42.432 17.92 79.04 43.616 111.776 76.352 32.736 32.736 57.696 68.032 75.648 110.464 10.56 24.96 17.408 42.56 22.016 74.56L608 416 608 131.872z" p-id="8330" fill="#e6e6e6"></path></svg>
