<svg t="1584778370636" class="icon" viewBox="0 0 1024 1024" version="1.1" xmlns="http://www.w3.org/2000/svg" p-id="5688" xmlns:xlink="http://www.w3.org/1999/xlink" width="300" height="300"><defs><style type="text/css"></style></defs><path d="M512.8 955.9c-107.6 0-206.2-11.7-277.4-32.8-38.4-11.5-68.9-25.6-90.6-42-28.9-21.9-43.5-48.4-43.5-78.7 0-36.7 13.3-65.6 39.4-85.9 24-18.5 59.9-29 109.8-32.2l2.9-0.2 43.8 66.6-7.9 0.9c-3.2 0.4-6.2 0.5-8.8 0.7-2.2 0.1-4.2 0.2-6.1 0.4h-0.2c-12.2 0.8-19.8 1.3-24.5 1.7-2.6 0.2-4.4 0.3-5.6 0.4l-1.2 0.1c-1.2 0.1-2.1 0.1-2.7 0.2-29.9 3.1-51.6 9.7-64.5 19.7-9.1 7-12.3 14.2-12.3 27.6 0 6.9 16.1 31.3 87.9 52.6 66.3 19.7 159.2 30.6 261.7 30.6 102.4 0 194.8-10.7 260.2-30.2 70.5-21.1 86.4-45.4 86.4-52.3 0-4-2.9-11.4-9.5-19-5.5-6.3-26.7-27.2-69.4-33.5l-31.8-1.6c-1.7-0.1-3.4-0.1-5.2-0.1-3.1 0-6.6-0.1-10.6-0.5l-7.8-0.9 43.5-67.6 2.9 0.2c24.7 1.8 45.3 6.2 62.9 13.4 23.8 9.7 44.4 24 59.5 41.3 18 20.6 27.5 44.3 27.5 68.5 0 30.3-14.4 56.6-42.9 78.4-21.5 16.5-51.7 30.6-89.7 41.9-70.4 20.7-168.4 32.3-276.2 32.3z m-18.5-133.1c-16.1 0-31.5-7.5-41.1-19.9-13-16.8-29-36.7-46-57.7-44.6-55.1-100.1-123.8-144-191.4-51.9-79.9-77.1-142.1-77.1-190.1 0-79.7 32.1-154.7 90.3-211.1C334.7 96.3 412 65.2 494.3 65.2c82.3 0 159.7 31 217.9 87.3 58.3 56.4 90.4 131.3 90.4 211.1 0 47.9-25.2 110.1-77.1 190-43.9 67.6-99.4 136.3-144 191.4-17 21-33.1 40.9-46.1 57.8-9.9 12.7-24.8 19.9-40.8 19.9l-0.3 0.1z m0-694.2c-134.1 0-243.1 105.4-243.1 235.1 0 63.7 72.8 160.5 193.5 320.9 10.6 14 21.5 28.6 32.8 43.6 3.9 5.2 10.2 8.3 16.8 8.3 6.7 0 13-3.1 16.9-8.3 11.3-15 22.2-29.6 32.8-43.6 120.6-160.4 193.4-257.2 193.4-320.9 0.1-129.7-109-235.1-243.1-235.1z m-76 361.6c-2.1 0-4.7-1-5.1-5.9-0.1-0.9-0.2-2.3-0.3-4-0.2-3.3-0.4-8.2-0.6-14.3-0.5-12-1-28.6-1.5-46.7-0.9-32.9-1.9-77.6-2-104.4 0-15.8 4.5-28.8 13.1-37.4 7-7 16.4-10.8 26.6-10.8 21.4 0 43.6 17.4 43.7 46.6 0 35.7 0.2 83.7 0.3 98.8l120.6 0.6c32.9 0.2 47.9 20.6 47.8 39.4 0 18.9-14.5 38.1-41.9 38.1h-0.1c-25.2-0.1-63-0.1-90.3-0.1-50.8 0-99.8 0-108.8 0.1h-1.5z" p-id="5689" fill="#1296db"></path></svg>
