<svg t="1584271102580" class="icon" viewBox="0 0 1243 1024" version="1.1" xmlns="http://www.w3.org/2000/svg" p-id="12507" xmlns:xlink="http://www.w3.org/1999/xlink" width="242.7734375" height="200"><defs><style type="text/css"></style></defs><path d="M917.310995 450.34555H526.475393V60.046073h390.835602V450.34555z m-17.156021-373.143456h-355.987435v355.987435h355.987435V77.202094z" fill="#8DC16B" p-id="12508"></path><path d="M598.31623 125.453403h247.690053v12.33089h-247.690053zM598.31623 187.643979h247.690053v12.33089h-247.690053zM674.446073 249.298429h171.024084v12.33089h-171.024084zM674.446073 309.880628h171.024084v12.33089h-171.024084zM674.446073 370.998953h171.024084v12.33089h-171.024084z" fill="#8DC16B" p-id="12509"></path><path d="M733.419895 288.971728h66.479581v159.229319h-66.479581z" fill="#F5F7F0" p-id="12510"></path><path d="M804.188482 448.737173h-76.129843V283.074346H804.188482v165.662827z m-9.650262-146.89843h-56.829319v140.464922h56.829319V301.838743z" fill="#8DC16B" p-id="12511"></path><path d="M1017.030366 981.109948H235.895288V432.117277h781.135078V981.109948z m-17.692146-530.764398H253.587435v513.072251h745.750785V450.34555z" fill="#8DC16B" p-id="12512"></path><path d="M342.048168 265.382199h272.351832v173.704712H342.048168z" fill="#FEFFFF" p-id="12513"></path><path d="M297.013613 505.566492h136.712041V514.680628H297.013613zM297.013613 543.095288h102.4v9.114136H297.013613zM906.588482 502.349738h57.365445v99.183246h-57.365445zM324.892147 834.747644l28.950785 45.034555c0 0.536126 0.536126 0.536126 0.536126 1.072251s0 0.536126-0.536126 1.072252-1.072251 1.072251-1.608377 0.536125l-19.300524-9.114136-9.650261-8.57801-2.680629 3.216754-5.897382 5.361256-19.300523 9.114136c-0.536126 0.536126-1.608377 0-1.608377-0.536125-0.536126-0.536126-0.536126-1.608377 0-2.144503l28.950785-45.034555c0.536126-0.536126 0.536126-0.536126 1.072251-0.536126s1.072251 0 1.072252 0.536126z" fill="#8DC16B" p-id="12514"></path><path d="M318.458639 849.759162h11.258638v73.449215h-11.258638zM410.136126 834.747644l28.950785 45.034555c0 0.536126 0.536126 0.536126 0.536126 1.072251s0 0.536126-0.536126 1.072252-1.072251 1.072251-1.608377 0.536125L418.17801 873.884817l-9.650261-8.578011-2.680629 3.216754-5.897382 5.361257-19.300523 9.114136c-0.536126 0.536126-1.608377 0-1.608377-0.536126-0.536126-0.536126-0.536126-1.608377 0-2.144502l28.950785-45.034555c0.536126-0.536126 0.536126-0.536126 1.072251-0.536126 0-0.536126 0.536126-0.536126 1.072252 0z" fill="#8DC16B" p-id="12515"></path><path d="M403.166492 849.759162h11.258639v73.449215h-11.258639zM28.639832 148.544335l12.765152-8.878241L256.305592 448.629948l-12.759791 8.872879zM994.298639 448.747895l214.900607-308.953131 12.765152 8.878241-214.900607 308.953131zM622.441885 448.737173H326.500524V249.834555H621.905759l0.536126 198.902618z m-15.547644-183.354974H342.048168v167.80733h264.846073V265.382199z" fill="#8DC16B" p-id="12516"></path></svg>
