<svg t="1584360940916" class="icon" viewBox="0 0 1024 1024" version="1.1" xmlns="http://www.w3.org/2000/svg" p-id="10228" xmlns:xlink="http://www.w3.org/1999/xlink" width="250" height="250"><defs><style type="text/css"></style></defs><path d="M211.693821 792.736961L185.461625 777.627216l2.098576-648.459883 26.022338 15.109745-1.888718 648.459883zM437.605492 15.109745l1.888718 644.682447L215.681115 792.736961l-2.098576-648.564812 224.022953-129.062404z" fill="#76C8FF" p-id="10229"></path><path d="M213.582539 144.486935L187.560201 129.37719 411.583154 0l26.022338 15.109745L213.582539 144.486935z" fill="#2789FF" p-id="10230"></path><path d="M812.620965 261.587458l-1.993647 648.040168L410.009222 678.364587l1.888718-648.145097 400.723025 231.367968z" fill="#76C8FF" p-id="10231"></path><path d="M812.620965 261.587458l25.91741-15.109745-1.888718 648.040168-26.022339 15.109745 1.993647-648.040168z" fill="#005CE2" p-id="10232"></path><path d="M411.89794 30.21949l26.022339-15.109745 400.618096 231.367968-25.91741 15.109745L411.89794 30.21949z" fill="#2789FF" p-id="10233"></path><path d="M627.106876 375.959832l-1.678861 619.814325-393.482939-227.170816 1.78379-619.814326 393.37801 227.170817z" fill="#154989" p-id="10234"></path><path d="M627.106876 375.959832l173.34235-100.731632-1.783789 619.814325-173.237422 100.731632 1.678861-619.814325z" fill="#FF7517" p-id="10235"></path><path d="M233.728866 148.789015l173.237422-100.731632 393.482938 227.170817-173.34235 100.731632L233.728866 148.789015z" fill="#FFDF5A" p-id="10236"></path><path d="M614.305564 375.959832l-1.888718 648.040168L211.693821 792.632032l1.888718-648.040168 400.723025 231.367968z" fill="#76C8FF" p-id="10237"></path><path d="M614.305564 375.959832l26.022338-15.109745-1.993646 648.040168-25.91741 15.109745 1.888718-648.040168z" fill="#005CE2" p-id="10238"></path><path d="M213.582539 144.591864l26.022339-15.109745 400.723024 231.367968-26.022338 15.109745L213.582539 144.591864z" fill="#2789FF" p-id="10239"></path><path d="M565.303822 349.832565l-0.524644 195.062609-53.933395-93.491547-54.143252 30.849063 0.419715-194.95768 108.181576 62.537555z" fill="#FFDF5A" p-id="10240"></path><path d="M565.303822 349.832565l1.783789-1.049288-0.524643 195.062609-1.78379 1.049288 0.524644-195.062609z" fill="#FF7517" p-id="10241"></path><path d="M565.303822 351.616354l29.589917-17.942822v-1.67886l-29.589917 17.837893v1.783789z" fill="#FF7517" p-id="10242"></path><path d="M457.122246 287.29501l29.484988-17.837893 108.286505 62.537555-29.589917 17.837893-108.181576-62.537555z" fill="#FFB845" p-id="10243"></path></svg>
