<svg t="1584776266662" class="icon" viewBox="0 0 1024 1024" version="1.1" xmlns="http://www.w3.org/2000/svg" p-id="4924" xmlns:xlink="http://www.w3.org/1999/xlink" width="300" height="300"><defs><style type="text/css"></style></defs><path d="M197.5 97.7c-15.5 0-31.1 15.5-31.1 31.1v766.5c0 15.5 15.5 31.1 31.1 31.1h629.1c15.5 0 31.1-15.5 31.1-31.1V278.9L676.4 97.7H197.5z" fill="#2C97FF" p-id="4925"></path><path d="M681.5 97.7v145c0 15.5 15.5 31.1 31.1 31.1h145L681.5 97.7z" fill="#99D3FF" p-id="4926"></path><path d="M704 690.2H310.4c-8.3 0-16.6-8.3-16.6-16.6s8.3-16.6 16.6-16.6H704c8.3 0 16.6 8.3 16.6 16.6s-6.3 16.6-16.6 16.6z m0-149.2H310.4c-8.3 0-16.6-8.3-16.6-16.6s8.3-16.6 16.6-16.6H704c8.3 0 16.6 8.3 16.6 16.6-0.1 8.3-6.3 16.6-16.6 16.6zM476.1 391.8H310.4c-8.3 0-16.6-8.3-16.6-16.6s8.3-16.6 16.6-16.6h165.7c8.3 0 16.6 8.3 16.6 16.6s-8.3 16.6-16.6 16.6z" fill="#FFFFFF" p-id="4927"></path></svg>
