<svg t="1584270803073" class="icon" viewBox="0 0 1024 1024" version="1.1" xmlns="http://www.w3.org/2000/svg" p-id="9616" xmlns:xlink="http://www.w3.org/1999/xlink" width="200" height="200"><defs><style type="text/css"></style></defs><path d="M605.2 305.2c11 0 20 9 20 20v15c0 11-9 20-20 20H234.5c-11 0-20-9-20-20v-15c0-11 9-20 20-20h370.7zM506.3 458.2c11 0 20 9 20 20v15c0 11-9 20-20 20H234.5c-11 0-20-9-20-20v-15c0-11 9-20 20-20h271.8zM350.4 617.6c11 0 20 9 20 20v15c0 11-9 20-20 20H234.5c-11 0-20-9-20-20v-15c0-11 9-20 20-20h115.9zM570.4 148.9v110.9h109.5zM771.5 330.9c-7.8-7.8-20.5-7.7-28.2 0.1l-104 105.3c-7.7 7.8-7.7 20.6 0.1 28.4L781.8 607c7.8 7.8 20.5 7.7 28.2-0.1l103.9-105.3c7.7-7.8 7.7-20.6-0.1-28.4L771.5 330.9z m38.1 197.8c-7.7 7.8-20.4 7.9-28.2 0.1l-64.2-64.2c-7.8-7.8-7.8-20.6-0.1-28.4l26.6-27.1c7.7-7.8 20.4-7.9 28.2-0.1l64.2 64.2c7.8 7.8 7.8 20.6 0.1 28.4l-26.6 27.1zM611.2 488.2c-7.8-7.8-20.5-7.7-28.2 0.1l-200.4 204c-7.7 7.8-16 23-18.5 33.8l-42.2 182.7c-2.5 10.7 4.2 17.4 14.9 14.8l187.5-45.2c10.7-2.6 25.7-11.1 33.4-19l196-200.3c7.7-7.9 7.6-20.7-0.2-28.4L611.2 488.2z m-80.6 320c-7.7 7.8-22.8 16.4-33.5 18.9l-84.9 20.3c-10.7 2.6-17.4-4.1-14.9-14.8l19.1-81.7c2.5-10.7 10.9-25.9 18.6-33.7l150-152.7c7.7-7.8 20.4-7.9 28.2-0.1l65.1 65.1c7.8 7.8 7.8 20.6 0.1 28.4L530.6 808.2z" fill="#2680F0" p-id="9617"></path><path d="M181 877.3c-11 0-20-9-20-20V171.2c0-11 9-20 20-20h370.7c11 0 20 9 20 20V238c0 11 9 20 20 20h65.5c11 0 20 9 20 20v50.6c0 11 6.3 13.6 14.1 5.8l24.8-25.1c7.7-7.8 14.1-23.2 14.1-34.2v-25.6c0-11-6.3-26.4-14.1-34.2l-102.5-103c-7.8-7.8-23.1-14.2-34.1-14.2H130.3c-11 0-20 9-20 20v790.1c0 11 9 20 20 20h128.9c11 0 22-8.8 24.5-19.5l2.7-11.8c2.5-10.7-4.5-19.5-15.5-19.5l-89.9-0.1z" fill="#2680F0" p-id="9618"></path></svg>
