<svg t="1584602332790" class="icon" viewBox="0 0 1024 1024" version="1.1" xmlns="http://www.w3.org/2000/svg" p-id="10348" xmlns:xlink="http://www.w3.org/1999/xlink" width="250" height="250"><defs><style type="text/css"></style></defs><path d="M801.142 232h-579.04l289.52 299.86L801.142 232zM136 234.963V792h752V234.18L534.643 600.157a32 32 0 0 1-0.794 0.794c-12.714 12.275-32.972 11.92-45.248-0.794L136 234.963zM96 160h832c17.673 0 32 14.327 32 32v640c0 17.673-14.327 32-32 32H96c-17.673 0-32-14.327-32-32V192c0-17.673 14.327-32 32-32z" fill="#5090F1" p-id="10349"></path></svg>
