<svg t="1584361034364" class="icon" viewBox="0 0 1071 1024" version="1.1" xmlns="http://www.w3.org/2000/svg" p-id="11121" xmlns:xlink="http://www.w3.org/1999/xlink" width="261.474609375" height="250"><defs><style type="text/css"></style></defs><path d="M984.197 96.745C909.282 16.786 829.136 0 775.101 0 699.72 0 636.416 31.745 605.11 58.929c-17.719 15.392-41.905 38.149-69.124 64.568-21.94-21.509-37.804-36.632-47.228-45.024-70.947-63.14-260.686-122.32-398.6 19.235-37.15 38.13-63.167 79.48-77.335 122.901C1.042 256.735-2.642 294.527 1.871 332.94c7.909 67.29 38.247 117.308 49.674 136.134 0.937 1.545 1.714 2.823 2.302 3.832 21.65 37.216 87.49 95.748 98.408 105.33l-20.67 20.82c-14.954 15.06-23.148 35.04-23.072 56.259 0.08 21.222 8.415 41.145 23.474 56.092 14.984 14.88 34.86 23.072 55.973 23.072 6.088 0 12.06-0.706 17.846-2.022a81.21 81.21 0 0 0-0.729 11.016c0.081 21.223 8.415 41.147 23.474 56.095 14.983 14.878 34.86 23.072 55.977 23.072a80.2 80.2 0 0 0 14.878-1.4 79.667 79.667 0 0 0-0.471 8.86c0.076 21.224 8.41 41.148 23.469 56.093 14.982 14.878 34.865 23.072 55.977 23.072 5.155 0 10.235-0.5 15.187-1.451a80.48 80.48 0 0 0-0.513 9.225c0.076 21.218 8.41 41.141 23.469 56.095 14.982 14.873 34.864 23.065 55.977 23.065 14.919 0 29.196-4.092 41.572-11.723l17.584 17.625c14.593 14.651 34.049 21.882 54.094 21.882 22.43-0.006 45.602-9.057 63.519-26.91 21.12-21.036 30.042-49.41 26.32-75.32 3.278 0.401 6.615 0.63 10.009 0.624 1.75 0 3.516-0.052 5.29-0.164 21.894-1.353 42.925-11.04 59.226-27.281 16.3-16.237 26.07-37.234 27.505-59.123 0.327-4.987 0.192-9.88-0.34-14.655 2.882 0.31 5.798 0.483 8.76 0.483a86.52 86.52 0 0 0 5.296-0.168c21.888-1.352 42.925-11.042 59.226-27.283 21.322-21.24 30.439-49.789 26.84-75.805 3.844 0.546 7.74 0.839 11.66 0.839 22.763 0 46.4-9.278 64.72-27.533l0.386-0.392c31.57-33.4 32.666-87.311 2.444-117.86l-14.337-15.17c19.62-20.955 59.792-64.172 75.13-82.992 22.559-27.686 50.234-84.421 53.971-153.201 3.097-57.044-9.512-142.432-87.179-225.326zM157.826 685.389c-8.112-8.053-12.597-18.78-12.64-30.202-0.04-11.433 4.37-22.187 12.419-30.299l111.954-112.756c8.09-8.153 18.874-12.639 30.357-12.639 11.366 0 22.074 4.41 30.141 12.418 8.112 8.054 12.597 18.78 12.637 30.203 0.042 11.43-4.367 22.187-12.416 30.298l-111.954 112.76c-8.09 8.148-18.874 12.638-30.357 12.638-11.375-0.003-22.078-4.413-30.141-12.42z m96.562 88.16c-8.107-8.055-12.598-18.778-12.638-30.203-0.04-11.426 4.368-22.186 12.422-30.293l111.95-112.76c8.089-8.153 18.872-12.638 30.362-12.638 11.367 0 22.069 4.409 30.134 12.417 8.113 8.054 12.599 18.78 12.639 30.203 0.042 11.43-4.369 22.185-12.416 30.299L314.885 773.33c-8.09 8.153-18.872 12.643-30.357 12.643-11.37-0.002-22.074-4.417-30.14-12.424z m93.851 86.627c-8.105-8.057-12.596-18.781-12.638-30.206-0.04-11.43 4.374-22.184 12.423-30.298l111.949-112.758c8.095-8.148 18.88-12.639 30.362-12.639 11.367 0 22.075 4.415 30.142 12.42 16.739 16.623 16.837 43.762 0.215 60.5L408.744 859.953c-8.096 8.154-18.874 12.639-30.363 12.639-11.367 0-22.067-4.41-30.142-12.416z m124.262 99.356c-11.367 0-22.075-4.41-30.142-12.422-8.105-8.05-12.596-18.772-12.638-30.203-0.04-11.426 4.368-22.187 12.423-30.293l111.95-112.76c8.096-8.148 18.874-12.639 30.363-12.639 11.366 0 22.069 4.41 30.136 12.418 16.744 16.622 16.837 43.764 0.22 60.501l-111.955 112.76c-8.09 8.148-18.872 12.638-30.357 12.638z m150.892 11.566c-19.609 19.537-49.108 21.836-65.765 5.12l-16.142-16.19 70.745-71.252 16.534 16.58c16.65 16.717 14.242 46.204-5.372 65.742z m304.313-305.194c-20.074 19.818-49.818 22.431-66.41 5.775l-0.193-0.193-150.267-142.102-14.592 15.438-11.192 11.173 145.642 145.842c16.65 16.707 13.951 46.483-6.012 66.37-9.98 9.942-22.623 15.864-35.606 16.661-12.101 0.747-23.038-3.12-30.794-10.907l-148.843-149.25-25.966 25.893 1.172 1.173 145.403 150.6 0.199 0.203c7.75 7.78 11.583 18.727 10.79 30.83-0.857 12.98-6.817 25.601-16.797 35.546-9.98 9.94-22.628 15.858-35.612 16.658-12.101 0.753-23.038-3.12-30.794-10.907l-15.881-15.921c29.714-31.175 29.178-80.696-1.523-111.175-14.983-14.879-34.86-23.065-55.972-23.065-5.173 0-10.27 0.502-15.233 1.457 2.619-23.31-5.01-47.555-22.915-65.326-14.979-14.877-34.86-23.072-55.973-23.072-5.051 0-10.026 0.483-14.878 1.4 0.309-2.922 0.479-5.88 0.467-8.861-0.076-21.224-8.41-41.146-23.47-56.092-14.982-14.88-34.863-23.072-55.976-23.072-6.083 0-12.055 0.704-17.847 2.021 0.49-3.622 0.74-7.3 0.729-11.017-0.076-21.224-8.41-41.145-23.47-56.094-14.988-14.878-34.863-23.072-55.976-23.072-21.329 0-41.35 8.335-56.38 23.474l-71.065 71.58 5.266-6.073c-19.994-17.36-75.527-68.69-92.196-97.339-0.676-1.16-1.569-2.635-2.647-4.409-71.503-117.86-59.914-230.853 33.53-326.757 66.853-68.616 143.378-78.864 195.797-75.37 69.45 4.625 125.37 34.1 152.152 57.937 8.928 7.95 24.18 22.495 45.391 43.287C411.03 246.4 289.091 373.285 282.057 380.604l-12.2 12.703 12.2 12.702c3.301 3.436 81.909 84.217 170.003 84.217 3.517 0 7.057-0.128 10.515-0.385 7.14-0.32 81.49-4.969 139.876-61.215l88.096-81.732 124.926 130.21-0.181 0.174 114.83 121.497 0.333 0.345c16.16 16.219 14.823 47.976-2.749 66.784z m107.056-345.827c-3.255 59.979-26.7 108.609-45.777 132.024-13.933 17.094-51.17 57.238-71.21 78.666L692.045 295.49 577.376 401.87l-0.263 0.25c-49.68 47.946-115.612 51.067-116.224 51.09l-0.795 0.047c-2.629 0.203-5.336 0.303-8.037 0.303-53.994 0-106.961-40.232-130.652-60.942 50.618-52.443 236.206-243.878 307.75-306.004 26.531-23.037 80.676-49.946 145.945-49.946 68.056 0 129.405 28.648 182.338 85.144 68.819 73.451 80.034 148.36 77.323 198.265z m0 0" p-id="11122" fill="#e6e6e6"></path></svg>
