<svg t="1584271139640" class="icon" viewBox="0 0 1024 1024" version="1.1" xmlns="http://www.w3.org/2000/svg" p-id="13758" xmlns:xlink="http://www.w3.org/1999/xlink" width="200" height="200"><defs><style type="text/css"></style></defs><path d="M376.8 558.4c10.8-6.7 12.4-20.6 3-29.2-70.5-65.3-106.1-175.3-63.9-275.8-66.3-6.6-137.1 15.9-169.7 57.5-63 80.3-34.6 177.6 31.2 232 7.6 6.2 6.3 16.2-2.5 21.1C78.1 617.6 65.4 733 64.6 783c-0.2 13.4 11.3 24 26.3 24.1 45.4 0.2 98.4 0.1 152.9 0 8.9-78.7 38.7-190.1 133-248.7z" fill="#00A9DC" p-id="13759"></path><path d="M856.6 565.7c-8.2-5-9.7-15-2-20.5 49.1-34.7 106.6-140.2 32.7-234.4-37.9-48.3-105.3-64.4-167.1-57.1 49.3 117.3-12.3 236.4-66 278.9-9.6 7.6-7.7 21.5 2.4 28.4 94.3 64.7 118.8 154.6 124.7 245.9 53.9-0.1 106.3-0.2 150.9-0.1 14.9 0 26.6-10.7 26.5-24-0.4-78.7-10.5-161-102.1-217.1z" fill="#FDBA3E" p-id="13760"></path><path d="M476.9 806.8c14.9 0 26.6-10.7 26.5-24-0.6-78.7-10.7-161-102.3-217.1-8.2-5-9.7-15-2-20.5 49.1-34.7 106.6-140.2 32.7-234.4-27.5-35.1-70.7-53-116-57.5-42.2 100.6-6.6 210.6 63.9 275.8 9.3 8.7 7.8 22.5-3 29.2-94.3 58.6-124 170-133 248.7 81.4-0.1 166-0.3 233.2-0.2z" fill="#8F3694" p-id="13761"></path><path d="M656.7 561c-10.1-6.9-12-20.8-2.4-28.4 53.7-42.5 115.2-161.6 66-278.9-48.9 5.8-94.3 26.2-118.5 57.1-63 80.3-34.6 177.6 31.2 232 7.6 6.2 6.3 16.2-2.5 21.1-97 53.7-109.7 169.1-110.4 219.1-0.2 13.4 11.3 24 26.3 24.1 68.1 0.3 153.4 0 235-0.1-5.9-91.3-30.4-181.2-124.7-246z" fill="#FF7C20" p-id="13762"></path><path d="M546.4 807c-15-0.1-26.5-10.7-26.3-24.1 0.7-50 13.5-165.4 110.3-219.1 8.7-4.8 10-14.8 2.5-21.1-65.8-54.3-94.2-151.7-31.2-232 24.3-30.9 69.6-51.3 118.5-57.1-6.5-15.5-14.8-31-25.5-46.3-83.9-120-285.5-97.1-353.5 0-10.5 14.9-18.7 30.3-25.3 45.9 45.3 4.5 88.4 22.4 116 57.5 73.9 94.2 16.4 199.7-32.7 234.4-7.8 5.5-6.2 15.5 2 20.5 91.6 56.1 101.7 138.4 102.3 217.1 0.1 13.3-11.6 24-26.5 24-67.3-0.2-151.8 0.1-233.1 0.3-2.4 21.4-3.4 40.5-3.6 55.3-0.2 18.5 14 33.3 32.6 33.4 140 0.6 338.7-0.6 477.7-0.3 18.5 0 32.9-14.8 32.8-33.3-0.1-18.3-0.6-36.8-1.8-55.2-81.8 0.2-167.1 0.4-235.2 0.1z" fill="#FB536C" p-id="13763"></path></svg>
