<svg t="1584602976702" class="icon" viewBox="0 0 1024 1024" version="1.1" xmlns="http://www.w3.org/2000/svg" p-id="12158" xmlns:xlink="http://www.w3.org/1999/xlink" width="250" height="250"><defs><style type="text/css"></style></defs><path d="M962.2 91.2c-0.4 0-0.7 0-1.1-0.2l-40-11.4c-2.1-0.6-3.4-2.8-2.8-4.9 0.6-2.1 2.8-3.4 4.9-2.8l40 11.4c2.1 0.6 3.4 2.8 2.8 4.9-0.5 1.8-2.1 3-3.8 3z" fill="#FF824E" p-id="12159"></path><path d="M936.5 105.5c-0.4 0-0.7 0-1.1-0.2-2.1-0.6-3.4-2.8-2.8-4.9l11.4-40c0.6-2.1 2.8-3.4 4.9-2.8 2.1 0.6 3.4 2.8 2.8 4.9l-11.4 40c-0.5 1.8-2.1 3-3.8 3z" fill="#FF824E" p-id="12160"></path><path d="M429.4 907.8c-0.7 0-1.4-0.2-2-0.5l-21-12.1c-1.9-1.1-2.6-3.6-1.5-5.5s3.6-2.6 5.5-1.5l21 12.1c1.9 1.1 2.6 3.6 1.5 5.5-0.7 1.3-2.1 2-3.5 2z" fill="#ACD598" p-id="12161"></path><path d="M412.9 912.2c-0.7 0-1.4-0.2-2-0.5-1.9-1.1-2.6-3.5-1.5-5.5l12.1-21c1.1-1.9 3.5-2.6 5.5-1.5 1.9 1.1 2.6 3.5 1.5 5.5l-12.1 21c-0.8 1.3-2.1 2-3.5 2z" fill="#ACD598" p-id="12162"></path><path d="M139.2 962c-1.9 0-3.6-1.4-3.9-3.4-0.4-2.2 1.1-4.2 3.3-4.6l30-4.9c2.2-0.4 4.2 1.1 4.6 3.3 0.4 2.2-1.1 4.2-3.3 4.6l-30 4.9c-0.3 0.1-0.5 0.1-0.7 0.1z" fill="#FFF100" p-id="12163"></path><path d="M156.7 974.5c-1.9 0-3.6-1.4-3.9-3.4l-4.9-30c-0.4-2.2 1.1-4.2 3.3-4.6 2.2-0.4 4.2 1.1 4.6 3.3l4.9 30c0.4 2.2-1.1 4.2-3.3 4.6-0.3 0.1-0.5 0.1-0.7 0.1z" fill="#FFF100" p-id="12164"></path><path d="M927.5 368c-6.1 0-11-4.9-11-11s4.9-11 11-11 11 4.9 11 11-4.9 11-11 11z m0-17.4c-3.5 0-6.4 2.8-6.4 6.4s2.8 6.4 6.4 6.4 6.4-2.8 6.4-6.4-2.9-6.4-6.4-6.4z" fill="#FF8A8A" p-id="12165"></path><path d="M514.5 956c-6.6 0-12-5.4-12-12s5.4-12 12-12 12 5.4 12 12-5.4 12-12 12z m0-19.2c-4 0-7.2 3.2-7.2 7.2s3.2 7.2 7.2 7.2 7.2-3.2 7.2-7.2-3.2-7.2-7.2-7.2z" fill="#F9C0C8" p-id="12166"></path><path d="M48.5 860.5c-8 0-14.5-6.5-14.5-14.5s6.5-14.5 14.5-14.5S63 838 63 846s-6.5 14.5-14.5 14.5z m0-23.2c-4.8 0-8.7 3.9-8.7 8.7s3.9 8.7 8.7 8.7 8.7-3.9 8.7-8.7-3.9-8.7-8.7-8.7z" fill="#79F2EF" p-id="12167"></path><path d="M269.5 916c-8.8 0-16-7.2-16-16s7.2-16 16-16 16 7.2 16 16-7.2 16-16 16z m0-26.7c-5.9 0-10.7 4.8-10.7 10.7s4.8 10.7 10.7 10.7 10.7-4.8 10.7-10.7-4.8-10.7-10.7-10.7z" fill="#F9C898" p-id="12168"></path><path d="M425 73.5m-8 0a8 8 0 1 0 16 0 8 8 0 1 0-16 0Z" fill="#D3D462" p-id="12169"></path><path d="M352 972.5m-8.5 0a8.5 8.5 0 1 0 17 0 8.5 8.5 0 1 0-17 0Z" fill="#A657FF" p-id="12170"></path><path d="M822 388.5m-7 0a7 7 0 1 0 14 0 7 7 0 1 0-14 0Z" fill="#FF455C" p-id="12171"></path><path d="M821.5 124m-7 0a7 7 0 1 0 14 0 7 7 0 1 0-14 0Z" fill="#A657FF" p-id="12172"></path><path d="M972.5 241m-6 0a6 6 0 1 0 12 0 6 6 0 1 0-12 0Z" fill="#B4DB61" p-id="12173"></path><path d="M853.5 273c-8.8 0-16-7.2-16-16s7.2-16 16-16 16 7.2 16 16-7.2 16-16 16z m0-26.7c-5.9 0-10.7 4.8-10.7 10.7s4.8 10.7 10.7 10.7 10.7-4.8 10.7-10.7-4.8-10.7-10.7-10.7z" fill="#97D5FF" p-id="12174"></path><path d="M974.5 461m-8 0a8 8 0 1 0 16 0 8 8 0 1 0-16 0Z" fill="#D2FFAE" p-id="12175"></path><path d="M168.5 147h576c11 0 20 9 20 20v645c0 11-9 20-20 20h-576c-11 0-20-9-20-20V167c0-11 9-20 20-20z" fill="#22B4FF" p-id="12176"></path><path d="M745.5 851h-81.7c-5.5 0-10-4.5-10-10s4.5-10 10-10h81.7V147h-616v174c0 5.5-4.5 10-10 10s-10-4.5-10-10V147c0-11 9-20 20-20h616c11 0 20 9 20 20v684c0 11-9 20-20 20z m-249.3 0H129.5c-11 0-20-9-20-20V444c0-5.5 4.5-10 10-10s10 4.5 10 10v387h366.7c5.5 0 10 4.5 10 10s-4.5 10-10 10z" fill="#222222" p-id="12177"></path><path d="M118.5 384m-16 0a16 16 0 1 0 32 0 16 16 0 1 0-32 0Z" fill="#222222" p-id="12178"></path><path d="M240.5 73h34c11 0 20 9 20 20v68c0 11-9 20-20 20h-34c-11 0-20-8.9-20-20V93c0-11 8.9-20 20-20z m350 0h34c11 0 20 8.9 20 20v68c0 11-8.9 20-20 20h-34c-11 0-20-8.9-20-20V93c0-11 8.9-20 20-20z" fill="#FFFFFF" p-id="12179"></path><path d="M269.5 73h24c11 0 20 9 20 20v68c0 11-9 20-20 20h-24c-11 0-20-8.9-20-20V93c0-11 8.9-20 20-20z m350 0h24c11 0 20 8.9 20 20v68c0 11-8.9 20-20 20h-24c-11 0-20-8.9-20-20V93c0-11 8.9-20 20-20z" fill="#87FFFE" p-id="12180"></path><path d="M590.5 191c-8 0-15.5-3.1-21.2-8.8s-8.8-13.2-8.8-21.2V93c0-16.5 13.4-30 30-30h44c8 0 15.5 3.1 21.2 8.8 5.7 5.7 8.8 13.2 8.8 21.2v68c0 16.5-13.4 30-30 30h-44z m0-108c-5.5 0-10 4.5-10 10v68c0 2.7 1 5.2 2.9 7.1 1.9 1.9 4.4 2.9 7.1 2.9h44c5.5 0 10-4.5 10-10V93c0-2.7-1-5.2-2.9-7.1s-4.4-2.9-7.1-2.9h-44z m-350 108c-8 0-15.5-3.1-21.2-8.8s-8.8-13.2-8.8-21.2V93c0-8 3.1-15.5 8.8-21.2s13.2-8.8 21.2-8.8h44c16.5 0 30 13.5 30 30v68c0 16.5-13.5 30-30 30h-44z m0-108c-2.7 0-5.2 1-7.1 2.9-1.9 1.9-2.9 4.4-2.9 7.1v68c0 2.7 1 5.2 2.9 7.1 1.9 1.9 4.4 2.9 7.1 2.9h44c5.5 0 10-4.5 10-10V93c0-5.5-4.5-10-10-10h-44z" fill="#222222" p-id="12181"></path><path d="M111.5 254h637" fill="#358AFE" p-id="12182"></path><path d="M111.5 244h637v20h-637z" fill="#222222" p-id="12183"></path><path d="M214.9 349.4h445.2c2.2 0 4 1.8 4 4v387.2c0 2.2-1.8 4-4 4H214.9c-2.2 0-4-1.8-4-4V353.4c0-2.2 1.8-4 4-4z" fill="#FFFFFF" p-id="12184"></path><path d="M660.1 754.6H214.9c-7.7 0-14-6.3-14-14V353.4c0-7.7 6.3-14 14-14h445.2c7.7 0 14 6.3 14 14v387.2c0 7.7-6.3 14-14 14z m-439.2-20h433.2V359.4H220.9v375.2z" fill="#222222" p-id="12185"></path><path d="M210.9 447.2h454.4" fill="#FFFFFF" p-id="12186"></path><path d="M665.3 457.2H210.9c-5.5 0-10-4.5-10-10s4.5-10 10-10h454.4c5.5 0 10 4.5 10 10s-4.4 10-10 10z" fill="#222222" p-id="12187"></path><path d="M210.9 551h454.4" fill="#FFFFFF" p-id="12188"></path><path d="M665.3 561H210.9c-5.5 0-10-4.5-10-10s4.5-10 10-10h454.4c5.5 0 10 4.5 10 10s-4.4 10-10 10z" fill="#222222" p-id="12189"></path><path d="M210.9 654.9h454.4" fill="#FFFFFF" p-id="12190"></path><path d="M665.3 664.9H210.9c-5.5 0-10-4.5-10-10s4.5-10 10-10h454.4c5.5 0 10 4.5 10 10s-4.4 10-10 10z" fill="#222222" p-id="12191"></path><path d="M325.1 356v384" fill="#FFFFFF" p-id="12192"></path><path d="M325.1 750c-5.5 0-10-4.5-10-10V356c0-5.5 4.5-10 10-10s10 4.5 10 10v384c0 5.5-4.5 10-10 10z" fill="#222222" p-id="12193"></path><path d="M441.5 356v384" fill="#FFFFFF" p-id="12194"></path><path d="M441.5 750c-5.5 0-10-4.5-10-10V356c0-5.5 4.5-10 10-10s10 4.5 10 10v384c0 5.5-4.5 10-10 10z" fill="#222222" p-id="12195"></path><path d="M555.2 356v384" fill="#FFFFFF" p-id="12196"></path><path d="M555.2 750c-5.5 0-10-4.5-10-10V356c0-5.5 4.5-10 10-10s10 4.5 10 10v384c0 5.5-4.4 10-10 10z" fill="#222222" p-id="12197"></path><path d="M915.5 643c0 84 0.3 231.6 0.3 231.6 0 6.6-59.4 73.6-59.4 73.6L797 886.4l-59.4 61.8-59.4-62.9-59.4 62.9s-59.4-67.1-59.4-73.6v-409c0-6.6 5.3-11.9 11.9-11.9h332.8c6.6 0 11.9 5.3 11.9 11.9v56.9" fill="#FFFFFF" p-id="12198"></path><path d="M925.5 643c0 84 0.3 231.6 0.3 231.6 0 6.6-48.4 61.6-48.4 61.6L832 886.4l-64.4 61.8-59.4-62.9-69.4 62.9s-59.4-67.1-59.4-73.6v-409c0-6.6 5.3-11.9 11.9-11.9h322.8c6.6 0 11.9 5.3 11.9 11.9v56.9" fill="#FFDF00" p-id="12199"></path><path d="M616.7 958.3h-0.4c-2.7-0.1-5.2-1.3-6.9-3.2-0.2-0.2-15.6-17.1-30.9-34.5-33.2-38-33.2-41.5-33.2-45.9V455.6c0-12.1 9.8-21.9 21.9-21.9H914c12.1 0 21.9 9.8 21.9 21.9v66.9c0 5.5-4.5 10-10 10s-10-4.5-10-10v-66.9c0-1-0.8-1.9-1.9-1.9H567.1c-1 0-1.9 0.8-1.9 1.9v417.1c4.5 7.6 28.4 35.3 52 61.4l61-56.1c4-3.7 10.3-3.5 14 0.5l52.6 55.7 58.1-54.9c1.9-1.8 4.6-2.8 7.2-2.7 2.7 0.1 5.2 1.3 7 3.2l48.9 53.5c22.7-25.9 45.3-53.1 49.6-60.5 0-17.2-0.3-151.8-0.3-229.8 0-5.5 4.5-10 10-10s10 4.5 10 10c0 83 0.3 230.2 0.3 231.6 0 4.4 0 7.8-32.1 45.8-14.8 17.5-29.7 34.4-29.9 34.5-1.9 2.1-4.6 3.3-7.4 3.4-2.8 0-5.5-1.2-7.5-3.3l-49.6-54.3-58 54.8c-1.9 1.8-4.5 2.8-7.2 2.7s-5.2-1.2-7-3.1l-52.6-55.8-61.2 56.3c-1.5 1.8-3.9 2.7-6.4 2.7z m-52-86.5z" fill="#222222" p-id="12200"></path><path d="M926.5 587m-16 0a16 16 0 1 0 32 0 16 16 0 1 0-32 0Z" fill="#222222" p-id="12201"></path><path d="M678.7 619c9.4 0 17.1 7.7 17 17.1 0 9.4-7.7 17.1-17.1 17-9.4 0-17-7.7-17-17.1-0.1-9.4 7.6-17 17.1-17z m117.7 0c9.4 0 17.1 7.7 17 17.1 0 9.4-7.7 17.1-17.1 17-9.4 0-17-7.7-17-17.1-0.1-9.4 7.6-17 17.1-17zM781.1 695.8c-7.6 24.1-33.3 37.6-57.4 30-14.4-4.5-25.7-15.9-30.1-30.3 6.6 0 65.2 0.3 87.5 0.3z" fill="#222222" p-id="12202"></path><path d="M737.4 730.9c-4.9 0-9.8-0.8-14.7-2.3-15.4-4.8-27.3-16.9-32.1-32.3-0.3-0.9-0.1-1.9 0.5-2.7s1.5-1.2 2.4-1.2c2.4 0 11.2 0 22.6 0.1 21.3 0.1 50.5 0.2 64.9 0.2 1 0 1.9 0.5 2.4 1.2s0.7 1.8 0.4 2.7c-3.9 12.4-12.4 22.6-24 28.7-6.9 3.8-14.6 5.6-22.4 5.6z m-39.6-32.4c4.8 11.6 14.6 20.6 26.7 24.4 10.9 3.4 22.5 2.4 32.6-2.9 8.9-4.7 15.7-12.1 19.6-21.2-15.4 0-41.2-0.1-60.6-0.2-7.6 0-14.1-0.1-18.3-0.1z" fill="#222222" p-id="12203"></path><path d="M737.4 706.6c13.1 0 24.6 3.8 30.8 9.5-17.5 15.8-44.1 15.8-61.6 0 6.2-5.7 17.7-9.5 30.8-9.5z" fill="#FF1834" p-id="12204"></path></svg>
