<svg t="1584265509196" class="icon" viewBox="0 0 1024 1024" version="1.1" xmlns="http://www.w3.org/2000/svg" p-id="2642" xmlns:xlink="http://www.w3.org/1999/xlink" width="250" height="250">
  <defs>
    <style type="text/css"></style>
  </defs>
  <path d="M763.30251 1024H612.247639a27.517372 27.517372 0 0 1-27.42048-27.517372V688.074896v-11.917735a99.120675 99.120675 0 0 0-0.678245-20.347353 32.36198 32.36198 0 0 0-9.689215-0.968921h-125.959803a32.36198 32.36198 0 0 0-9.689215 0.968921 98.44243 98.44243 0 0 0-0.678245 20.250461v320.422359a27.517372 27.517372 0 0 1-27.420481 27.517372H260.626006c-84.877528 0-137.489969-78.579538-137.489969-151.442439V593.120584H88.061077A84.586852 84.586852 0 0 1 6.090313 542.736663c-5.522853-12.886657-19.378431-58.135293 31.00549-110.747734L410.518171 43.645168a140.396734 140.396734 0 0 1 203.473527 0l373.0348 388.634437c52.12798 54.259607 34.784284 101.833656 30.714813 110.844626a84.48996 84.48996 0 0 1-81.873872 49.996353H901.180048V872.169992c0 73.25047-53.000009 151.830008-137.877538 151.830008zM639.571227 969.062148h123.731283c50.965274 0 82.552117-50.093245 82.552117-96.892156V565.700103a27.517372 27.517372 0 0 1 27.42048-27.517372h62.592332c16.18099 0 26.548451-5.619745 31.683735-17.343696 0-0.968922 8.52651-20.734921-20.153568-50.480813L573.975238 81.723786a85.361989 85.361989 0 0 0-123.828175 0L76.724695 470.358222c-27.711157 29.067647-21.703843 47.283372-20.250461 50.674598 5.038392 11.530167 15.405853 17.149912 31.586843 17.149911h62.592333a27.517372 27.517372 0 0 1 27.42048 27.517372V872.169992c0 46.411343 31.586843 96.892156 82.552116 96.892156h123.537499V688.074896v-10.948813c0-19.959784-0.775137-42.632549 16.18099-59.976245a64.627068 64.627068 0 0 1 48.446078-17.246804h125.959802a64.72396 64.72396 0 0 1 48.446078 17.246804c17.053019 17.343696 16.568559 40.01646 16.18099 59.976245V688.074896z" p-id="2643"></path>
</svg>
