<svg t="1584782131430" class="icon" viewBox="0 0 1024 1024" version="1.1" xmlns="http://www.w3.org/2000/svg" p-id="7441" xmlns:xlink="http://www.w3.org/1999/xlink" width="300" height="300"><defs><style type="text/css"></style></defs><path d="M796.444444 515.555556l130.673778-57.998223A28.444444 28.444444 0 0 1 967.111111 483.555556v317.44a28.444444 28.444444 0 0 1-39.992889 26.026666L796.444444 768.995556V853.333333a56.888889 56.888889 0 0 1-56.888888 56.888889H113.777778a56.888889 56.888889 0 0 1-56.888889-56.888889V398.222222a56.888889 56.888889 0 0 1 56.888889-56.888889h625.777778a56.888889 56.888889 0 0 1 56.888888 56.888889v117.333334zM497.777778 312.888889a99.555556 99.555556 0 1 1 0-199.111111 99.555556 99.555556 0 0 1 0 199.111111z m-199.111111 0a71.111111 71.111111 0 1 1 0-142.222222 71.111111 71.111111 0 0 1 0 142.222222zM341.333333 739.555556a28.444444 28.444444 0 0 0 42.552889 24.689777l199.111111-113.777777a28.444444 28.444444 0 0 0 0-49.379556l-199.111111-113.777778A28.444444 28.444444 0 0 0 341.333333 512v227.555556z m56.888889-178.545778L511.544889 625.777778 398.222222 690.545778v-129.536z" fill="#3399fe" p-id="7442"></path></svg>
