<svg t="1584360442579" class="icon" viewBox="0 0 1024 1024" version="1.1" xmlns="http://www.w3.org/2000/svg" p-id="5089" xmlns:xlink="http://www.w3.org/1999/xlink" width="250" height="250"><defs><style type="text/css"></style></defs><path d="M162.1 203.7v744" p-id="5090" fill="#e6e6e6"></path><path d="M902.2 576c-3.3 0-6-2.7-6-6V454.1c0-3.3-2.7-6-6-6H549.4c-3.3 0-6-2.7-6-6v-52.4c0-3.3 2.7-6 6-6H692c6.6 0 12-5.4 12-12v-168c0-6.6-5.4-12-12-12H333c-6.6 0-12 5.4-12 12v168c0 6.6 5.4 12 12 12h140.3c3.3 0 6 2.7 6 6v52.4c0 3.3-2.7 6-6 6H134c-3.3 0-6 2.7-6 6v115.8c0 3.3-2.7 6-6 6H76c-6.6 0-12 5.4-12 12v168c0 6.6 5.4 12 12 12h168c6.6 0 12-5.4 12-12v-168c0-6.6-5.4-12-12-12h-46c-3.3 0-6-2.7-6-6v-51.8c0-3.3 2.7-6 6-6h275.3c3.3 0 6 2.7 6 6v51.8c0 3.3-2.7 6-6 6h-77.2c-6.6 0-12 5.4-12 12v168c0 6.6 5.4 12 12 12h232c6.6 0 12-5.4 12-12v-168c0-6.6-5.4-12-12-12h-78.8c-3.3 0-6-2.7-6-6v-51.8c0-3.3 2.7-6 6-6h276.9c3.3 0 6 2.7 6 6V570c0 3.3-2.7 6-6 6h-46c-6.6 0-12 5.4-12 12v168c0 6.6 5.4 12 12 12h168c6.6 0 12-5.4 12-12V588c0-6.6-5.4-12-12-12h-46zM391 255.7h242.9c3.3 0 6 2.7 6 6v52c0 3.3-2.7 6-6 6H391c-3.3 0-6-2.7-6-6v-52c0-3.3 2.7-6 6-6zM186 703.9h-52c-3.3 0-6-2.7-6-6v-52c0-3.3 2.7-6 6-6h52c3.3 0 6 2.7 6 6v52c0 3.3-2.7 6-6 6z m384.1 0h-116c-3.3 0-6-2.7-6-6v-52c0-3.3 2.7-6 6-6h116c3.3 0 6 2.7 6 6v52c0 3.3-2.7 6-6 6z m320.1 0.1h-52c-3.3 0-6-2.7-6-6v-52c0-3.3 2.7-6 6-6h52c3.3 0 6 2.7 6 6v52c0 3.4-2.7 6-6 6z" p-id="5091" fill="#e6e6e6"></path></svg>
