<svg t="1584271047142" class="icon" viewBox="0 0 1024 1024" version="1.1" xmlns="http://www.w3.org/2000/svg" p-id="10726" xmlns:xlink="http://www.w3.org/1999/xlink" width="200" height="200"><defs><style type="text/css"></style></defs><path d="M851.6 744.4c6.5 0 13-2.8 17.7-6.5 9.3-4.7 14.9-14 14.9-24.2V185.8c0-67-54-121-121-121H260.5c-67 0-121 54-121 121v651.6c0 67 54 121 121 121h595.8c15.8 0 27.9-12.1 27.9-27.9 0-15.8-12.1-27.9-27.9-27.9h-4.7c-43.8 0-79.1-35.4-79.1-79.1 0-43.8 35.3-79.1 79.1-79.1zM483.9 120.7v277.4l-42.8-42.8c-5.6-6.5-13-11.2-22.3-11.2-8.4 0-16.8 3.7-21.4 10.2-4.7 4.7-22.3 23.3-43.8 43.7V120.7h130.3z m-39.1 262.5c-0.9 0-0.9 0 0 0-0.9 0-0.9 0 0 0zM260.5 120.7h37.2v344.4c0 11.2 6.5 21.4 16.8 26.1 3.7 1.9 7.4 1.9 11.2 1.9 7.4 0 14-2.8 19.5-8.4l46.5-46.5c9.3-9.3 18.6-18.6 27-26.1 7.4 8.4 17.7 17.7 27 27l46.5 46.5c8.4 7.4 19.5 10.2 30.7 5.6 10.2-4.7 16.8-14.9 16.8-26.1V120.7h223.4c36.3 0 65.2 28.9 65.2 65.2v502.7H260.5c-24.2 0-46.5 7.4-65.2 19.5V185.8c0-36.3 28.9-65.1 65.2-65.1z m0 781.9c-36.3 0-65.2-28.9-65.2-65.2v-27.9c0-36.3 28.9-65.2 65.2-65.2h482.2c-16.8 22.3-26.1 49.3-26.1 79.1 0 29.8 9.3 56.8 26.1 79.1H260.5z m0 0" p-id="10727" fill="#1afa29"></path></svg>
