<svg t="1584271627169" class="icon" viewBox="0 0 1024 1024" version="1.1" xmlns="http://www.w3.org/2000/svg" p-id="17885" xmlns:xlink="http://www.w3.org/1999/xlink" width="200" height="200"><defs><style type="text/css"></style></defs><path d="M585 285H437.8v-82.4c0-32.2 26.2-58.4 58.4-58.4h30.4c32.2 0 58.4 26.2 58.4 58.4V285z m-102.4-44.8h57.6v-37.6c0-7.5-6.1-13.6-13.6-13.6h-30.4c-7.5 0-13.6 6.1-13.6 13.6v37.6z m28.7 640.6c-56.5 0-102.4-45.9-102.4-102.4h44.8c0 31.8 25.8 57.6 57.6 57.6s57.6-25.8 57.6-57.6h44.8c0 56.4-45.9 102.4-102.4 102.4z m0 0" fill="#83CDD9" p-id="17886"></path><path d="M804 781H218.7c-31.3 0-56.8-25.5-56.8-56.8s25.5-56.8 56.8-56.8h1.4V519.3c0-37.6 7.4-74 21.9-108.4 14-33.1 34.1-63 59.7-88.5s55.4-45.6 88.5-59.7c34.3-14.6 70.8-21.9 108.4-21.9h24c37.6 0 74 7.4 108.4 21.9 33.1 14 63 34.1 88.5 59.7 25.6 25.6 45.6 55.4 59.7 88.5 14.4 34.4 21.8 70.9 21.8 108.4v148.1h3c31.3 0 56.8 25.5 56.8 56.8S835.3 781 804 781z m-585.3-68.8c-6.6 0-12 5.4-12 12s5.4 12 12 12H804c6.6 0 12-5.4 12-12s-5.4-12-12-12h-47.9V519.3c0-62.4-24.3-121-68.4-165.2-44.2-44.1-102.8-68.4-165.2-68.4h-24c-62.4 0-121 24.3-165.2 68.4-44.1 44.2-68.4 102.8-68.4 165.2v192.9h-46.2z m0 0" fill="#83CDD9" p-id="17887"></path></svg>
