<svg t="1584360317764" class="icon" viewBox="0 0 1024 1024" version="1.1" xmlns="http://www.w3.org/2000/svg" p-id="4050" data-spm-anchor-id="a313x.7781069.0.i8" xmlns:xlink="http://www.w3.org/1999/xlink" width="250" height="250"><defs><style type="text/css"></style></defs><path d="M154.624 809.984c-18.432 0-33.792-14.848-33.792-32.768s14.848-32.768 33.792-32.768c45.568 0 76.288-56.32 76.288-93.696V307.2c0-128 104.96-231.936 234.496-231.936h21.504v-21.504c0-17.92 14.848-32.768 33.792-32.768s33.792 14.848 33.792 32.768v21.504h21.504c129.536 0 234.496 103.936 234.496 231.936v343.552c0 37.376 30.208 93.696 76.288 93.696 18.432 0 33.792 14.848 33.792 32.768s-14.848 32.768-33.792 32.768h-732.16z" fill="#e6e6e6" p-id="4051" data-spm-anchor-id="a313x.7781069.0.i10" class=""></path><path d="M520.192 42.496c6.656 0 12.288 5.12 12.288 11.776v42.496h42.496c117.76 0 213.504 94.208 213.504 210.432v343.552c0 47.104 37.888 114.688 97.28 114.688 6.656 0 12.288 5.12 12.288 11.776 0 6.656-5.632 11.776-12.288 11.776H154.624c-6.656 0-12.288-5.12-12.288-11.776 0-6.656 5.632-11.776 12.288-11.776 59.392 0 97.28-68.096 97.28-114.688V307.2c0-116.224 95.744-210.432 213.504-210.432h42.496v-42.496c0-6.656 5.632-11.776 12.288-11.776m0-42.496c-30.208 0-54.784 24.064-54.784 54.272-141.312 0-256 113.152-256 252.928v343.552c0 29.696-24.576 72.192-54.784 72.192s-54.784 24.064-54.784 54.272c0 29.696 24.576 54.272 54.784 54.272H885.76c30.208 0 54.784-24.064 54.784-54.272 0-29.696-24.576-54.272-54.784-54.272-30.208 0-54.784-42.496-54.784-72.192V307.2c0-139.776-114.688-252.928-256-252.928 0-30.208-24.576-54.272-54.784-54.272z" fill="#f4ea2a" p-id="4052" data-spm-anchor-id="a313x.7781069.0.i11" class="selected"></path><path d="M630.272 906.24c-17.408 44.032-60.928 74.752-109.568 74.752-48.64 0-92.16-30.72-109.568-74.752h219.136m27.136-42.496H383.488c-13.312 0-23.04 11.776-20.992 25.088 11.776 76.8 78.336 135.168 158.208 135.168 79.872 0 146.432-58.368 158.208-135.168 1.536-12.8-8.192-25.088-21.504-25.088z" fill="#f4ea2a" p-id="4053" data-spm-anchor-id="a313x.7781069.0.i9" class="selected"></path></svg>
