<svg t="1584360578119" class="icon" viewBox="0 0 1024 1024" version="1.1" xmlns="http://www.w3.org/2000/svg" p-id="6199" xmlns:xlink="http://www.w3.org/1999/xlink" width="250" height="250"><defs><style type="text/css"></style></defs><path d="M323.234537 826.954938 269.939386 826.954938C260.691828 826.954938 253.147788 834.498998 253.147788 843.746551L253.147788 897.041669C253.147788 906.289222 260.691828 913.833281 269.939386 913.833281L323.234537 913.833281C332.482048 913.833281 340.026135 906.289222 340.026135 897.041669L340.026135 843.746551C340.026135 834.498998 332.482048 826.954938 323.234537 826.954938L323.234537 826.954938ZM323.234537 424.929676 269.939386 424.929676C260.691828 424.929676 253.147788 432.47373 253.147788 441.721283L253.147788 495.016401C253.147788 504.263959 260.691828 511.808014 269.939386 511.808014L323.234537 511.808014C332.482048 511.808014 340.026135 504.263959 340.026135 495.016401L340.026135 441.721283C340.026135 432.47373 332.482048 424.929676 323.234537 424.929676L323.234537 424.929676ZM323.234537 559.019213 269.939386 559.019213C260.691828 559.019213 253.147788 566.563272 253.147788 575.810825L253.147788 628.862585C253.147788 638.110143 260.691828 645.654198 269.939386 645.654198L323.234537 645.654198C332.482048 645.654198 340.026135 638.110143 340.026135 628.862585L340.026135 575.567472C340.026135 566.319914 332.482048 559.019213 323.234537 559.019213L323.234537 559.019213ZM323.234537 692.865401 269.939386 692.865401C260.691828 692.865401 253.147788 700.409456 253.147788 709.657009L253.147788 762.952127C253.147788 772.199685 260.691828 779.743739 269.939386 779.743739L323.234537 779.743739C332.482048 779.743739 340.026135 772.199685 340.026135 762.952127L340.026135 709.657009C340.026135 700.409456 332.482048 692.865401 323.234537 692.865401L323.234537 692.865401ZM323.234537 290.840134 269.939386 290.840134C260.691828 290.840134 253.147788 298.384189 253.147788 307.631746L253.147788 360.92686C253.147788 370.174417 260.691828 377.718472 269.939386 377.718472L323.234537 377.718472C332.482048 377.718472 340.026135 370.174417 340.026135 360.92686L340.026135 307.631746C340.026135 298.384189 332.482048 290.840134 323.234537 290.840134L323.234537 290.840134ZM960.334662 1001.192648 63.081053 1001.192648C53.833495 1001.192648 46.289455 993.648593 46.289455 984.401036L46.289455 929.889136C46.289455 920.641583 53.833495 913.097523 63.081053 913.097523L113.455895 913.097523 113.455895 233.466591C113.455895 214.484769 124.65031 197.449798 142.171974 189.905738L439.307962 17.852556C453.909364 11.525278 470.700963 12.985418 484.085574 21.74626 497.470185 30.507101 505.257612 45.351862 505.257612 61.170046L505.257612 912.85417 559.039441 912.85417 559.039441 137.763081C559.039441 120.728111 568.04366 105.153285 582.645062 96.879155 597.246464 88.361672 615.498193 88.60503 630.099596 97.122513L886.597585 246.543528C901.198988 255.061011 909.95982 270.635841 909.95982 287.427449L909.95982 913.340881 960.578001 913.340881C969.825559 913.340881 977.3696 920.884941 977.3696 930.132494L977.3696 984.401036C977.12626 993.648593 969.58222 1001.192648 960.334662 1001.192648ZM759.565359 564.188342 706.270255 564.188342C697.022697 564.188342 689.478656 571.732401 689.478656 580.979954L689.478656 634.031714C689.478656 643.279272 697.022697 650.823326 706.270255 650.823326L759.565359 650.823326C768.812916 650.823326 776.357004 643.279272 776.357004 634.031714L776.357004 580.7366C776.357004 571.489043 768.812916 564.188342 759.565359 564.188342L759.565359 564.188342ZM759.565359 296.009263 706.270255 296.009263C697.022697 296.009263 689.478656 303.553317 689.478656 312.800875L689.478656 366.095988C689.478656 375.343546 697.022697 382.887601 706.270255 382.887601L759.565359 382.887601C768.812916 382.887601 776.357004 375.343546 776.357004 366.095988L776.357004 312.800875C776.357004 303.553317 768.812916 296.009263 759.565359 296.009263L759.565359 296.009263ZM759.565359 698.034525 706.270255 698.034525C697.022697 698.034525 689.478656 705.578584 689.478656 714.826138L689.478656 768.121256C689.478656 777.368813 697.022697 784.912868 706.270255 784.912868L759.565359 784.912868C768.812916 784.912868 776.357004 777.368813 776.357004 768.121256L776.357004 714.826138C776.357004 705.578584 768.812916 698.034525 759.565359 698.034525L759.565359 698.034525ZM759.565359 832.124067 706.270255 832.124067C697.022697 832.124067 689.478656 839.668126 689.478656 848.915679L689.478656 902.210797C689.478656 911.458351 697.022697 919.00241 706.270255 919.00241L759.565359 919.00241C768.812916 919.00241 776.357004 911.458351 776.357004 902.210797L776.357004 848.915679C776.357004 839.668126 768.812916 832.124067 759.565359 832.124067L759.565359 832.124067ZM759.565359 430.0988 706.270255 430.0988C697.022697 430.0988 689.478656 437.642859 689.478656 446.890412L689.478656 500.18553C689.478656 509.433088 697.022697 516.977143 706.270255 516.977143L759.565359 516.977143C768.812916 516.977143 776.357004 509.433088 776.357004 500.18553L776.357004 446.890412C776.357004 437.642859 768.812916 430.0988 759.565359 430.0988L759.565359 430.0988Z" p-id="6200" fill="#e6e6e6"></path></svg>
