<svg t="1585666593550" class="icon" viewBox="0 0 1024 1024" version="1.1" xmlns="http://www.w3.org/2000/svg" p-id="4616" width="250" height="250" xmlns:xlink="http://www.w3.org/1999/xlink"><defs><style type="text/css"></style></defs><path d="M512 229.034667L233.187556 347.420444 512 465.863111l278.812444-118.442667L512 229.034667z m22.243556-52.394667l340.423111 144.554667a28.444444 28.444444 0 0 1 0 52.337777L534.243556 518.257778c-14.222222 6.030222-30.264889 6.030222-44.487112 0L149.333333 373.589333a28.444444 28.444444 0 0 1 0-52.337777l340.423111-144.554667a56.718222 56.718222 0 0 1 44.487112-0.056889z" fill="#8492A6" p-id="4617"></path><path d="M852.423111 487.367111a28.444444 28.444444 0 0 1 22.243556 52.394667L534.243556 684.373333c-14.222222 6.030222-30.264889 6.030222-44.487112 0L149.333333 539.704889a28.444444 28.444444 0 1 1 22.243556-52.337778L512 632.035556l340.423111-144.668445z" fill="#8492A6" p-id="4618"></path><path d="M852.423111 653.482667a28.444444 28.444444 0 0 1 22.243556 52.394666L534.243556 850.488889c-14.222222 6.030222-30.264889 6.030222-44.487112 0l-340.423111-144.611556a28.444444 28.444444 0 0 1 22.243556-52.394666L512 798.151111l340.423111-144.668444z" fill="#8492A6" p-id="4619"></path></svg>
