<svg t="1584267076440" class="icon" viewBox="0 0 1024 1024" version="1.1" xmlns="http://www.w3.org/2000/svg" p-id="3201" xmlns:xlink="http://www.w3.org/1999/xlink" width="250" height="250">
  <defs>
    <style type="text/css"></style>
  </defs>
  <path d="M684.696736 315.567165l36.518728-36.606733-36.518728-36.604686-36.523845 36.604686L684.696736 315.567165zM118.247636 482.915591c0-204.074885 165.455309-369.525078 369.544521-369.525078 201.803145 0 365.812523 161.754011 369.473913 362.661763 18.679431 10.5421 36.036751 23.150256 51.751664 37.517475 0.728594-10.118452 1.107217-20.344351 1.107217-30.650067 0-233.251392-189.081403-422.331771-422.332794-422.331771-233.248322 0-422.328701 189.082426-422.328701 422.331771 0 233.245252 189.08038 422.327678 422.328701 422.327678 5.728468 0 11.42726-0.11461 17.10661-0.343831-13.854543-16.153912-25.895787-33.898041-35.83823-52.915164C273.671475 842.23319 118.247636 680.729889 118.247636 482.915591L118.247636 482.915591zM514.19141 483.541855 514.19141 192.56269c0-14.579043-11.821233-26.402323-26.39516-26.402323-14.58416 0-26.4013 11.82328-26.4013 26.402323l0 264.577864-211.169467 0c-14.57495 0-26.38288 11.82635-26.38288 26.4013 0 14.58109 11.80793 26.40437 26.38288 26.40437l237.57179 0C502.3712 509.944178 514.19141 498.117828 514.19141 483.541855L514.19141 483.541855zM321.301262 280.268218l-37.32714-37.323047-37.335327 37.323047 37.335327 37.340443L321.301262 280.268218zM279.711028 699.869808l36.519752-36.609803-36.519752-36.632315L243.1923 663.260006 279.711028 699.869808zM718.932468 483.572554c-131.454938 0-238.037395 106.574271-238.037395 238.036371 0 131.441635 106.578364 238.027162 238.037395 238.027162 131.455961 0 238.032278-106.585527 238.032278-238.027162C956.964746 590.156034 850.388429 483.572554 718.932468 483.572554L718.932468 483.572554zM718.932468 907.928425c-102.897531 0-186.337919-83.434248-186.337919-186.319499 0-102.895485 83.440387-186.326663 186.337919-186.326663 102.889345 0 186.324616 83.431178 186.324616 186.326663C905.257084 824.494177 821.82079 907.928425 718.932468 907.928425L718.932468 907.928425zM688.400081 842.071508 567.195601 720.866005l27.850301-27.849278 93.354178 93.355201L843.064626 631.706359l27.849278 27.851325L688.400081 842.071508zM700.816878 818.270429 585.369519 703.631482l24.87555-25.050536 115.447359 114.638947L700.816878 818.270429zM854.123496 642.96989 680.842964 816.250422 655.950018 791.356452l173.280532-173.280532L854.123496 642.96989z" p-id="3202"></path>
</svg>
