<svg t="1584270636014" class="icon" viewBox="0 0 1024 1024" version="1.1" xmlns="http://www.w3.org/2000/svg" p-id="4965" xmlns:xlink="http://www.w3.org/1999/xlink" width="200" height="200"><defs><style type="text/css"></style></defs><path d="M372.674303 617.841583 208.583061 617.841583l0 55.112202 158.683069 0C367.966071 654.182256 369.801882 635.789351 372.674303 617.841583L372.674303 617.841583z" p-id="4966"></path><path d="M208.583061 403.864164l353.807095 0c29.618575-13.797237 61.45363-22.044062 94.675266-23.715121l0-31.399127L208.583061 348.749916 208.583061 403.864164 208.583061 403.864164z" p-id="4967"></path><path d="M158.507572 769.490445c-20.847817 0-29.540803-8.698103-29.540803-29.526477l0-593.077573c0-20.828374 8.694009-29.52443 29.540803-29.52443l548.628222 0c20.826328 0 29.54592 8.696056 29.54592 29.52443l0 237.22489c23.485901 4.300956 33.708729 11.326976 54.92596 20.72502L791.607674 107.216907c0-24.76708-20.083407-44.847417-44.847417-44.847417L118.888226 62.369489c-24.769127 0-44.852534 20.081361-44.852534 44.847417l0 672.728658c0 24.758893 20.083407 44.847417 44.852534 44.847417l283.845697 0c-11.346419-21.157879-20.263509-31.520901-26.356274-55.302537L178.973696 769.490445 158.507572 769.490445z" p-id="4968"></path><path d="M208.583061 214.205617l448.481338 0 0 55.113225-448.481338 0 0-55.113225Z" p-id="4969"></path><path d="M679.400103 420.235017c-148.146085 0-268.25358 120.091122-268.25358 268.258697 0 148.144038 120.112612 268.257673 268.25358 268.257673 148.164504 0 268.25665-120.114658 268.25665-268.257673C947.656753 540.326139 827.564607 420.235017 679.400103 420.235017zM679.87901 905.252479C560.885895 905.252479 464.4311 808.801776 464.4311 689.810708c0-118.999255 96.455819-215.45712 215.44791-215.45712 119.001301 0 215.452004 96.457866 215.452004 215.45712C895.32999 808.801776 798.875195 905.252479 679.87901 905.252479z" p-id="4970"></path><path d="M208.583061 483.293191l0 55.113225 197.292412 0c8.973372-19.528775 19.332301-37.97387 30.9325-55.113225L208.583061 483.293191z" p-id="4971"></path><path d="M681.543929 714.512297 681.543929 589.929884 627.394658 589.929884 627.394658 769.682827 807.143509 769.682827 807.143509 714.512297Z" p-id="4972"></path></svg>
