<svg t="1584271118912" class="icon" viewBox="0 0 1024 1024" version="1.1" xmlns="http://www.w3.org/2000/svg" p-id="12834" xmlns:xlink="http://www.w3.org/1999/xlink" width="200" height="200"><defs><style type="text/css"></style></defs><path d="M59.392 691.712l416.256-171.52v72.704l-414.72 185.344z" fill="#104D72" p-id="12835"></path><path d="M54.784 473.088l420.864-137.216V409.6L56.32 561.152z" fill="#895C03" p-id="12836"></path><path d="M50.176 248.832l425.472-100.864v75.264L51.712 338.944z" fill="#1B561B" p-id="12837"></path><path d="M60.928 778.24l414.72-185.344 490.496 59.392-342.016 211.456z" fill="#176299" p-id="12838"></path><path d="M413.696 763.904l371.712-190.464-1.024 37.888-370.688 198.144z" fill="#A31616" p-id="12839"></path><path d="M372.736 758.272l376.832-188.928 35.84 4.096-371.712 190.464z" fill="#CC231F" p-id="12840"></path><path d="M496.64 776.192v45.568l-41.984-6.144v-45.568z" fill="#F44336" p-id="12841"></path><path d="M454.656 770.048l366.08-192.512 36.352 4.608L496.64 776.192z" fill="#CC231F" p-id="12842"></path><path d="M496.64 776.192l360.448-194.048-0.512 37.888L496.64 821.76zM581.632 788.48l348.672-198.144-0.512 38.4-348.16 205.824z" fill="#A31616" p-id="12843"></path><path d="M538.624 782.336l354.816-196.096 36.864 4.096-348.672 198.144z" fill="#CC231F" p-id="12844"></path><path d="M581.632 788.48v46.08l-43.008-6.656v-45.568z" fill="#F44336" p-id="12845"></path><path d="M20.992 643.584l648.192 87.552-2.048 185.344L25.088 815.104l-4.096-171.52z m603.136 220.16l0.512-92.16-565.248-79.872 2.048 86.016 562.688 86.016" fill="#2196F3" p-id="12846"></path><path d="M413.696 763.904v45.568l-40.96-6.144v-45.056z" fill="#F44336" p-id="12847"></path><path d="M20.992 643.584l421.376-163.84 564.224 60.928-337.92 190.464z" fill="#1582CC" p-id="12848"></path><path d="M56.32 561.152L475.648 409.6l495.616 49.152-345.088 173.056z" fill="#AD7904" p-id="12849"></path><path d="M497.152 545.792l364.032-156.16-1.024 38.912-363.008 163.84z" fill="#A31616" p-id="12850"></path><path d="M454.656 540.672L824.32 386.048l36.864 3.584-364.032 156.16z" fill="#CC231F" p-id="12851"></path><path d="M583.168 555.52l351.744-159.232-0.512 39.424-351.744 167.424z" fill="#A31616" p-id="12852"></path><path d="M539.648 550.912l357.888-157.696 37.376 3.072-351.744 159.232z" fill="#CC231F" p-id="12853"></path><path d="M583.168 555.52l-0.512 47.616-43.008-5.632v-46.592z" fill="#F44336" p-id="12854"></path><path d="M15.872 424.448l655.36 70.144-2.048 189.952L19.968 600.064l-4.096-175.616z m610.304 207.36l1.024-94.208L54.784 473.088l2.048 88.064 569.344 70.656" fill="#FFC107" p-id="12855"></path><path d="M497.152 545.792v46.592l-42.496-5.12v-46.592z" fill="#F44336" p-id="12856"></path><path d="M15.872 424.448l426.496-129.024 569.856 48.64-340.992 150.528z" fill="#E2A100" p-id="12857"></path><path d="M51.712 338.944l423.936-115.712 500.736 38.4L627.712 394.24z" fill="#2A722A" p-id="12858"></path><path d="M412.672 302.592l378.88-114.176-0.512 39.424-378.368 122.368z" fill="#A31616" p-id="12859"></path><path d="M370.176 299.008l385.024-113.152 36.352 2.56-378.88 114.176z" fill="#CC231F" p-id="12860"></path><path d="M412.672 302.592v47.616l-41.984-4.096-0.512-47.104zM497.664 309.76v48.128l-43.008-4.096v-47.616z" fill="#F44336" p-id="12861"></path><path d="M497.664 309.76L865.28 193.536l-1.024 39.936-366.592 124.416z" fill="#A31616" p-id="12862"></path><path d="M454.656 306.176l373.248-115.2 37.376 2.56-367.616 116.224z" fill="#CC231F" p-id="12863"></path><path d="M668.672 731.136l337.92-190.464-4.608 154.624-334.848 221.184z" fill="#0F68A5" p-id="12864"></path><path d="M584.704 317.44l355.328-118.784-1.024 39.936-354.816 127.488z" fill="#A31616" p-id="12865"></path><path d="M540.672 313.856l361.472-117.76 37.888 2.56L584.704 317.44z" fill="#CC231F" p-id="12866"></path><path d="M584.704 317.44l-0.512 48.64-44.032-4.096 0.512-48.128z" fill="#F44336" p-id="12867"></path><path d="M671.232 494.592l340.992-150.528-4.608 157.696-338.432 182.272z" fill="#CE9505" p-id="12868"></path><path d="M673.792 251.904L1017.856 143.36l-4.608 160.768-341.504 142.336z" fill="#3A893A" p-id="12869"></path><path d="M10.752 200.704L442.368 107.52l575.488 35.84-344.064 108.544z" fill="#65E065" p-id="12870"></path><path d="M10.752 200.704l663.552 51.712-2.048 194.56L14.848 379.904l-4.096-179.2zM627.712 394.24l1.024-96.768-578.56-48.64 2.048 90.112L627.712 394.24" fill="#4CAF50" p-id="12871"></path></svg>
