<svg t="1584361101980" class="icon" viewBox="0 0 1024 1024" version="1.1" xmlns="http://www.w3.org/2000/svg" p-id="11326" xmlns:xlink="http://www.w3.org/1999/xlink" width="250" height="250"><defs><style type="text/css"></style></defs><path d="M893.7 534.5c-4.5-16.5-10.9-31.7-19.2-45.7-8.3-14-18.3-26.8-29.9-38.3-3.1-3-6.3-6.1-9.7-9.1-2 64.9-21.9 127-57.7 180.2-18.2 27.1-40.2 51.3-65.2 71.7-18.3 14.9-37.9 27.7-58.7 38.2l50 168.8h103.3l-40.5-134.9c39.3-10.8 71.6-32.9 96.7-66.3 25.1-33.4 37.7-71.5 37.7-114.2v-0.1c-0.1-17-2.3-33.9-6.8-50.3zM329.7 693.7c-25.1-20.5-47-44.6-65.3-71.8-35.9-53.3-55.8-115.6-57.8-180.6-3.4 3-6.6 6-9.7 9.1-11.6 11.5-21.5 24.3-29.8 38.3-8.3 14-14.7 29.2-19.2 45.7-4.5 16.5-6.7 33.3-6.7 50.5v0.1c0 42.7 12.5 80.8 37.6 114.2 25.1 33.4 57.2 55.5 96.5 66.3l-40.4 134.9H338l50.5-168.6c-20.9-10.4-40.5-23.2-58.8-38.1z" fill="#e6e6e6" p-id="11327"></path><path d="M812.1 429.5c0-3.3-0.1-6.5-0.2-9.8-4.9-164.4-133.4-296.1-291.2-296.1-157.8 0-286.2 131.7-291.1 296.1-0.1 3.2-0.2 6.5-0.2 9.8 0 130.2 77.5 241.4 186.6 285.5l-54.9 185.4h319.2L626 714.7c109-44.3 186.1-155.3 186.1-285.2zM520.8 611.8c-36.8 0-68.2-13.7-94.2-41s-39-60.4-39-99.3h40.1c0 8.9 1.2 17.6 3.5 26.2 2.3 8.6 5.5 16.5 9.5 23.6 4 7.1 8.8 13.7 14.4 19.6 5.6 5.9 11.8 11 18.6 15.1 6.8 4.2 14.2 7.5 22.1 10 8 2.5 16.2 3.7 24.6 3.7 25.8 0 47.8-9.6 66.1-28.8 18.3-19.2 27.4-42.3 27.4-69.4H654c0 38.9-13 72-39 99.3-26 27.4-57.4 41-94.2 41z" fill="#e6e6e6" p-id="11328"></path></svg>
