<svg t="1584361173698" class="icon" viewBox="0 0 1024 1024" version="1.1" xmlns="http://www.w3.org/2000/svg" p-id="12902" xmlns:xlink="http://www.w3.org/1999/xlink" width="250" height="250"><defs><style type="text/css"></style></defs><path d="M446.2 645.4c67.1-38 112.5-110.2 112.5-192.8 0-122.3-99.2-221.5-221.5-221.5s-221.5 99.2-221.5 221.5c0 82.9 45.6 155 112.9 193.1C104.1 686.2 12.2 793.8 0 923.5h675.4C663.3 793.6 571 685.7 446.2 645.4z m0 0" fill="#e6e6e6" p-id="12903"></path><path d="M596.3 446.9c1.3 82.7-32.7 154-99.8 192 78 28.2 131.1 82.5 171.6 154.1H1024c-12.2-130-104.4-240.4-229.1-280.7 67.1-38 112.3-107.7 112.3-190.3 0-122.3-99.2-221.5-221.5-221.5-95.7 0-179.8 57.7-210.9 142.6 72.9 39.6 120.3 117.6 121.5 203.8z m0 0" fill="#e6e6e6" p-id="12904"></path></svg>
