<svg t="1584271444431" class="icon" viewBox="0 0 1024 1024" version="1.1" xmlns="http://www.w3.org/2000/svg" p-id="15105" xmlns:xlink="http://www.w3.org/1999/xlink" width="200" height="200"><defs><style type="text/css"></style></defs><path d="M488.609 317.669c0 81.171-65.799 146.981-146.971 146.981-81.163 0-146.962-65.81-146.962-146.981 0-81.172 65.799-146.972 146.962-146.972 81.171 0.001 146.971 65.801 146.971 146.972z" fill="#009FE8" p-id="15106"></path><path d="M341.637 469.65c-83.792 0-151.962-68.178-151.962-151.981 0-83.797 68.17-151.972 151.962-151.972 83.797 0 151.971 68.174 151.971 151.972 0.001 83.803-68.173 151.981-151.971 151.981z m0-293.952c-78.278 0-141.962 63.688-141.962 141.972 0 78.289 63.684 141.981 141.962 141.981 78.283 0 141.971-63.692 141.971-141.981 0.001-78.284-63.687-141.972-141.971-141.972z" fill="#433F3F" p-id="15107"></path><path d="M84.195 729.464c0-142.195 115.265-257.451 257.452-257.451 142.168 0 257.441 115.256 257.441 257.451" fill="#009FE8" p-id="15108"></path><path d="M604.088 729.464h-10c0-139.202-113.245-252.451-252.441-252.451-139.202 0-252.452 113.249-252.452 252.451h-10c0-70.106 27.3-136.015 76.871-185.584 49.569-49.569 115.477-76.867 185.581-76.867 70.097 0 136 27.298 185.569 76.867 49.571 49.57 76.872 115.478 76.872 185.584z" fill="#433F3F" p-id="15109"></path><path d="M823.695 317.669c0 81.171-65.8 146.981-146.971 146.981-81.173 0-146.973-65.81-146.973-146.981 0-81.172 65.8-146.972 146.973-146.972 81.171 0.001 146.971 65.801 146.971 146.972z" fill="#009FE8" p-id="15110"></path><path d="M676.724 469.65c-83.798 0-151.973-68.178-151.973-151.981 0-83.797 68.175-151.972 151.973-151.972 83.797 0 151.971 68.174 151.971 151.972 0 83.803-68.174 151.981-151.971 151.981z m0-293.952c-78.284 0-141.973 63.688-141.973 141.972 0 78.289 63.688 141.981 141.973 141.981 78.283 0 141.971-63.692 141.971-141.981 0-78.284-63.688-141.972-141.971-141.972z" fill="#433F3F" p-id="15111"></path><path d="M419.271 729.464c0-142.195 115.257-257.451 257.453-257.451 142.176 0 257.45 115.256 257.45 257.451" fill="#009FE8" p-id="15112"></path><path d="M939.174 729.464h-10c0-139.202-113.249-252.451-252.45-252.451-139.203 0-252.453 113.249-252.453 252.451h-10c0-70.107 27.299-136.016 76.868-185.584 49.568-49.569 115.478-76.867 185.585-76.867 70.101 0 136.006 27.298 185.576 76.867 49.573 49.57 76.874 115.478 76.874 185.584z" fill="#433F3F" p-id="15113"></path><path d="M643.105 422.438c0 76.153-61.741 137.93-137.921 137.93-76.179 0-137.919-61.777-137.919-137.93 0-76.18 61.741-137.92 137.919-137.92 76.18 0 137.921 61.741 137.921 137.92z" fill="#FFFFFF" p-id="15114"></path><path d="M505.184 565.368c-78.806 0-142.919-64.118-142.919-142.93 0-78.807 64.113-142.92 142.919-142.92 78.807 0 142.921 64.114 142.921 142.92 0 78.812-64.115 142.93-142.921 142.93z m0-275.85c-73.292 0-132.919 59.628-132.919 132.92 0 73.298 59.627 132.93 132.919 132.93 73.293 0 132.921-59.632 132.921-132.93 0-73.292-59.628-132.92-132.921-132.92z" fill="#433F3F" p-id="15115"></path><path d="M256.963 825.183c0-142.159 115.266-257.452 257.452-257.452 142.176 0 257.451 115.293 257.451 257.452" fill="#009FE8" p-id="15116"></path><path d="M776.866 825.183h-10c0-139.202-113.249-252.452-252.451-252.452-139.203 0-252.452 113.25-252.452 252.452h-10c0-70.093 27.3-135.997 76.871-185.571 49.574-49.577 115.481-76.881 185.582-76.881 70.097 0 136.002 27.304 185.577 76.881 49.573 49.575 76.873 115.479 76.873 185.571z" fill="#433F3F" p-id="15117"></path><path d="M507.505 504.11c-1.65 0-3.299-0.07-4.943-0.212-14.453-1.246-27.369-7.831-36.369-18.541l7.656-6.434c7.28 8.664 17.782 13.995 29.571 15.011 13.386 1.157 27.263-3.413 38.087-12.529l6.441 7.648c-11.519 9.704-26.023 15.057-40.443 15.057z" fill="#433F3F" p-id="15118"></path></svg>
