<svg t="1584778621130" class="icon" viewBox="0 0 1024 1024" version="1.1" xmlns="http://www.w3.org/2000/svg" p-id="6658" xmlns:xlink="http://www.w3.org/1999/xlink" width="300" height="300"><defs><style type="text/css"></style></defs><path d="M418.91 0H69.817A69.958 69.958 0 0 0 0 69.818V418.91a69.958 69.958 0 0 0 69.818 69.818H418.91a69.958 69.958 0 0 0 69.818-69.818V69.82A69.958 69.958 0 0 0 418.91 0z m23.272 418.91a23.273 23.273 0 0 1-23.273 23.272H69.82a23.273 23.273 0 0 1-23.274-23.273V69.82a23.273 23.273 0 0 1 23.273-23.274H418.91a23.273 23.273 0 0 1 23.273 23.273V418.91zM954.182 0H605.09a69.958 69.958 0 0 0-69.818 69.818V418.91a69.958 69.958 0 0 0 69.818 69.818h349.09A69.958 69.958 0 0 0 1024 418.91V69.82A69.958 69.958 0 0 0 954.182 0z m23.273 418.91a23.273 23.273 0 0 1-23.273 23.272H605.09a23.273 23.273 0 0 1-23.273-23.273V69.82a23.273 23.273 0 0 1 23.273-23.274h349.09a23.273 23.273 0 0 1 23.274 23.273V418.91zM418.909 535.272H69.82A69.958 69.958 0 0 0 0 605.09v349.09A69.958 69.958 0 0 0 69.818 1024H418.91a69.958 69.958 0 0 0 69.818-69.818V605.09a69.958 69.958 0 0 0-69.818-69.818z m23.273 418.909a23.273 23.273 0 0 1-23.273 23.273H69.82a23.273 23.273 0 0 1-23.274-23.273V605.09a23.273 23.273 0 0 1 23.273-23.273H418.91a23.273 23.273 0 0 1 23.273 23.273v349.09z m512-418.91H605.09a69.958 69.958 0 0 0-69.818 69.819v349.09A69.958 69.958 0 0 0 605.09 1024h349.09A69.958 69.958 0 0 0 1024 954.182V605.09a69.958 69.958 0 0 0-69.818-69.818z" fill="#1296db" p-id="6659"></path></svg>
